<svg width="16" height="16" viewBox="0 0 16 16" fill="none" xmlns="http://www.w3.org/2000/svg">
<path fill-rule="evenodd" clip-rule="evenodd" d="M14.284 0.292893C14.6745 -0.0976311 15.3077 -0.0976311 15.6982 0.292893C16.0888 0.683417 16.0888 1.31658 15.6982 1.70711L9.65979 7.74555L15.6983 13.784C16.0888 14.1745 16.0888 14.8077 15.6983 15.1982C15.3077 15.5888 14.6746 15.5888 14.284 15.1982L8.24558 9.15976L2.20711 15.1982C1.81658 15.5888 1.18342 15.5888 0.792894 15.1982C0.402369 14.8077 0.402369 14.1745 0.792894 13.784L6.83136 7.74555L0.792925 1.70711C0.402401 1.31658 0.402401 0.683417 0.792925 0.292893C1.18345 -0.0976311 1.81661 -0.0976311 2.20714 0.292893L8.24558 6.33133L14.284 0.292893Z" fill="#2E90DB"/>
</svg>
