<svg width="1874" height="575" viewBox="0 0 1874 575" fill="none" xmlns="http://www.w3.org/2000/svg">
<path fill-rule="evenodd" clip-rule="evenodd" d="M656.879 114.879C658.05 113.707 659.95 113.707 661.121 114.879L668.225 121.983C669.397 123.154 669.397 125.054 668.225 126.225C667.054 127.397 665.154 127.397 663.983 126.225L656.879 119.121C655.707 117.95 655.707 116.05 656.879 114.879Z" fill="#E0E0E0"/>
<path fill-rule="evenodd" clip-rule="evenodd" d="M668.225 114.879C669.397 116.05 669.397 117.95 668.225 119.121L661.121 126.225C659.95 127.397 658.05 127.397 656.879 126.225C655.707 125.054 655.707 123.154 656.879 121.983L663.983 114.879C665.154 113.707 667.054 113.707 668.225 114.879Z" fill="#E0E0E0"/>
<path fill-rule="evenodd" clip-rule="evenodd" d="M582.879 180.879C584.05 179.707 585.95 179.707 587.121 180.879L594.225 187.983C595.397 189.154 595.397 191.054 594.225 192.225C593.054 193.397 591.154 193.397 589.983 192.225L582.879 185.121C581.707 183.95 581.707 182.05 582.879 180.879Z" fill="#E0E0E0"/>
<path fill-rule="evenodd" clip-rule="evenodd" d="M594.225 180.879C595.397 182.05 595.397 183.95 594.225 185.121L587.121 192.225C585.95 193.397 584.05 193.397 582.879 192.225C581.707 191.054 581.707 189.154 582.879 187.983L589.983 180.879C591.154 179.707 593.054 179.707 594.225 180.879Z" fill="#E0E0E0"/>
<path fill-rule="evenodd" clip-rule="evenodd" d="M730.879 230.879C732.05 229.707 733.95 229.707 735.121 230.879L742.225 237.983C743.397 239.154 743.397 241.054 742.225 242.225C741.054 243.397 739.154 243.397 737.983 242.225L730.879 235.121C729.707 233.95 729.707 232.05 730.879 230.879Z" fill="#E0E0E0"/>
<path fill-rule="evenodd" clip-rule="evenodd" d="M742.225 230.879C743.397 232.05 743.397 233.95 742.225 235.121L735.121 242.225C733.95 243.397 732.05 243.397 730.879 242.225C729.707 241.054 729.707 239.154 730.879 237.983L737.983 230.879C739.154 229.707 741.054 229.707 742.225 230.879Z" fill="#E0E0E0"/>
<path fill-rule="evenodd" clip-rule="evenodd" d="M794.879 168.879C796.05 167.707 797.95 167.707 799.121 168.879L806.225 175.983C807.397 177.154 807.397 179.054 806.225 180.225C805.054 181.397 803.154 181.397 801.983 180.225L794.879 173.121C793.707 171.95 793.707 170.05 794.879 168.879Z" fill="#E0E0E0"/>
<path fill-rule="evenodd" clip-rule="evenodd" d="M806.225 168.879C807.397 170.05 807.397 171.95 806.225 173.121L799.121 180.225C797.95 181.397 796.05 181.397 794.879 180.225C793.707 179.054 793.707 177.154 794.879 175.983L801.983 168.879C803.154 167.707 805.054 167.707 806.225 168.879Z" fill="#E0E0E0"/>
<path fill-rule="evenodd" clip-rule="evenodd" d="M717.879 317.879C719.05 316.707 720.95 316.707 722.121 317.879L729.225 324.983C730.397 326.154 730.397 328.054 729.225 329.225C728.054 330.397 726.154 330.397 724.983 329.225L717.879 322.121C716.707 320.95 716.707 319.05 717.879 317.879Z" fill="#E0E0E0"/>
<path fill-rule="evenodd" clip-rule="evenodd" d="M729.225 317.879C730.397 319.05 730.397 320.95 729.225 322.121L722.121 329.225C720.95 330.397 719.05 330.397 717.879 329.225C716.707 328.054 716.707 326.154 717.879 324.983L724.983 317.879C726.154 316.707 728.054 316.707 729.225 317.879Z" fill="#E0E0E0"/>
<path fill-rule="evenodd" clip-rule="evenodd" d="M538.879 291.879C540.05 290.707 541.95 290.707 543.121 291.879L550.225 298.983C551.397 300.154 551.397 302.054 550.225 303.225C549.054 304.397 547.154 304.397 545.983 303.225L538.879 296.121C537.707 294.95 537.707 293.05 538.879 291.879Z" fill="#E0E0E0"/>
<path fill-rule="evenodd" clip-rule="evenodd" d="M550.225 291.879C551.397 293.05 551.397 294.95 550.225 296.121L543.121 303.225C541.95 304.397 540.05 304.397 538.879 303.225C537.707 302.054 537.707 300.154 538.879 298.983L545.983 291.879C547.154 290.707 549.054 290.707 550.225 291.879Z" fill="#E0E0E0"/>
<path fill-rule="evenodd" clip-rule="evenodd" d="M475.879 73.8787C477.05 72.7071 478.95 72.7071 480.121 73.8787L487.225 80.9827C488.397 82.1543 488.397 84.0537 487.225 85.2253C486.054 86.3969 484.154 86.3969 482.983 85.2253L475.879 78.1213C474.707 76.9498 474.707 75.0503 475.879 73.8787Z" fill="#E0E0E0"/>
<path fill-rule="evenodd" clip-rule="evenodd" d="M487.225 73.8787C488.397 75.0503 488.397 76.9498 487.225 78.1213L480.121 85.2253C478.95 86.3969 477.05 86.3969 475.879 85.2253C474.707 84.0537 474.707 82.1543 475.879 80.9827L482.983 73.8787C484.154 72.7071 486.054 72.7071 487.225 73.8787Z" fill="#E0E0E0"/>
<path fill-rule="evenodd" clip-rule="evenodd" d="M417.879 548.879C419.05 547.707 420.95 547.707 422.121 548.879L429.225 555.983C430.397 557.154 430.397 559.054 429.225 560.225C428.054 561.397 426.154 561.397 424.983 560.225L417.879 553.121C416.707 551.95 416.707 550.05 417.879 548.879Z" fill="#E0E0E0"/>
<path fill-rule="evenodd" clip-rule="evenodd" d="M429.225 548.879C430.397 550.05 430.397 551.95 429.225 553.121L422.121 560.225C420.95 561.397 419.05 561.397 417.879 560.225C416.707 559.054 416.707 557.154 417.879 555.983L424.983 548.879C426.154 547.707 428.054 547.707 429.225 548.879Z" fill="#E0E0E0"/>
<path fill-rule="evenodd" clip-rule="evenodd" d="M894.879 26.8787C896.05 25.7071 897.95 25.7071 899.121 26.8787L906.225 33.9827C907.397 35.1543 907.397 37.0537 906.225 38.2253C905.054 39.3969 903.154 39.3969 901.983 38.2253L894.879 31.1213C893.707 29.9498 893.707 28.0503 894.879 26.8787Z" fill="#E0E0E0"/>
<path fill-rule="evenodd" clip-rule="evenodd" d="M906.225 26.8787C907.397 28.0503 907.397 29.9498 906.225 31.1213L899.121 38.2253C897.95 39.3969 896.05 39.3969 894.879 38.2253C893.707 37.0537 893.707 35.1543 894.879 33.9827L901.983 26.8787C903.154 25.7071 905.054 25.7071 906.225 26.8787Z" fill="#E0E0E0"/>
<path fill-rule="evenodd" clip-rule="evenodd" d="M1091.88 0.878682C1093.05 -0.292892 1094.95 -0.292894 1096.12 0.878677L1103.23 7.98268C1104.4 9.15425 1104.4 11.0537 1103.23 12.2253C1102.05 13.3969 1100.15 13.3969 1098.98 12.2253L1091.88 5.12132C1090.71 3.94975 1090.71 2.05026 1091.88 0.878682Z" fill="#E0E0E0"/>
<path fill-rule="evenodd" clip-rule="evenodd" d="M1103.23 0.878682C1104.4 2.05026 1104.4 3.94975 1103.23 5.12132L1096.12 12.2253C1094.95 13.3969 1093.05 13.3969 1091.88 12.2253C1090.71 11.0537 1090.71 9.15425 1091.88 7.98268L1098.98 0.878677C1100.15 -0.292894 1102.05 -0.292892 1103.23 0.878682Z" fill="#E0E0E0"/>
<path fill-rule="evenodd" clip-rule="evenodd" d="M1238.88 97.8787C1240.05 96.7071 1241.95 96.7071 1243.12 97.8787L1250.23 104.983C1251.4 106.154 1251.4 108.054 1250.23 109.225C1249.05 110.397 1247.15 110.397 1245.98 109.225L1238.88 102.121C1237.71 100.95 1237.71 99.0503 1238.88 97.8787Z" fill="#E0E0E0"/>
<path fill-rule="evenodd" clip-rule="evenodd" d="M1250.23 97.8787C1251.4 99.0503 1251.4 100.95 1250.23 102.121L1243.12 109.225C1241.95 110.397 1240.05 110.397 1238.88 109.225C1237.71 108.054 1237.71 106.154 1238.88 104.983L1245.98 97.8787C1247.15 96.7071 1249.05 96.7071 1250.23 97.8787Z" fill="#E0E0E0"/>
<path fill-rule="evenodd" clip-rule="evenodd" d="M1356.88 51.8787C1358.05 50.7071 1359.95 50.7071 1361.12 51.8787L1368.23 58.9827C1369.4 60.1543 1369.4 62.0537 1368.23 63.2253C1367.05 64.3969 1365.15 64.3969 1363.98 63.2253L1356.88 56.1213C1355.71 54.9498 1355.71 53.0503 1356.88 51.8787Z" fill="#E0E0E0"/>
<path fill-rule="evenodd" clip-rule="evenodd" d="M1368.23 51.8787C1369.4 53.0503 1369.4 54.9498 1368.23 56.1213L1361.12 63.2253C1359.95 64.3969 1358.05 64.3969 1356.88 63.2253C1355.71 62.0537 1355.71 60.1543 1356.88 58.9827L1363.98 51.8787C1365.15 50.7071 1367.05 50.7071 1368.23 51.8787Z" fill="#E0E0E0"/>
<path fill-rule="evenodd" clip-rule="evenodd" d="M1231.88 206.879C1233.05 205.707 1234.95 205.707 1236.12 206.879L1243.23 213.983C1244.4 215.154 1244.4 217.054 1243.23 218.225C1242.05 219.397 1240.15 219.397 1238.98 218.225L1231.88 211.121C1230.71 209.95 1230.71 208.05 1231.88 206.879Z" fill="#E0E0E0"/>
<path fill-rule="evenodd" clip-rule="evenodd" d="M1243.23 206.879C1244.4 208.05 1244.4 209.95 1243.23 211.121L1236.12 218.225C1234.95 219.397 1233.05 219.397 1231.88 218.225C1230.71 217.054 1230.71 215.154 1231.88 213.983L1238.98 206.879C1240.15 205.707 1242.05 205.707 1243.23 206.879Z" fill="#E0E0E0"/>
<path fill-rule="evenodd" clip-rule="evenodd" d="M1362.88 248.879C1364.05 247.707 1365.95 247.707 1367.12 248.879L1374.23 255.983C1375.4 257.154 1375.4 259.054 1374.23 260.225C1373.05 261.397 1371.15 261.397 1369.98 260.225L1362.88 253.121C1361.71 251.95 1361.71 250.05 1362.88 248.879Z" fill="#E0E0E0"/>
<path fill-rule="evenodd" clip-rule="evenodd" d="M1374.23 248.879C1375.4 250.05 1375.4 251.95 1374.23 253.121L1367.12 260.225C1365.95 261.397 1364.05 261.397 1362.88 260.225C1361.71 259.054 1361.71 257.154 1362.88 255.983L1369.98 248.879C1371.15 247.707 1373.05 247.707 1374.23 248.879Z" fill="#E0E0E0"/>
<path fill-rule="evenodd" clip-rule="evenodd" d="M1467.88 181.879C1469.05 180.707 1470.95 180.707 1472.12 181.879L1479.23 188.983C1480.4 190.154 1480.4 192.054 1479.23 193.225C1478.05 194.397 1476.15 194.397 1474.98 193.225L1467.88 186.121C1466.71 184.95 1466.71 183.05 1467.88 181.879Z" fill="#E0E0E0"/>
<path fill-rule="evenodd" clip-rule="evenodd" d="M1479.23 181.879C1480.4 183.05 1480.4 184.95 1479.23 186.121L1472.12 193.225C1470.95 194.397 1469.05 194.397 1467.88 193.225C1466.71 192.054 1466.71 190.154 1467.88 188.983L1474.98 181.879C1476.15 180.707 1478.05 180.707 1479.23 181.879Z" fill="#E0E0E0"/>
<path fill-rule="evenodd" clip-rule="evenodd" d="M1612.88 104.879C1614.05 103.707 1615.95 103.707 1617.12 104.879L1624.23 111.983C1625.4 113.154 1625.4 115.054 1624.23 116.225C1623.05 117.397 1621.15 117.397 1619.98 116.225L1612.88 109.121C1611.71 107.95 1611.71 106.05 1612.88 104.879Z" fill="#E0E0E0"/>
<path fill-rule="evenodd" clip-rule="evenodd" d="M1624.23 104.879C1625.4 106.05 1625.4 107.95 1624.23 109.121L1617.12 116.225C1615.95 117.397 1614.05 117.397 1612.88 116.225C1611.71 115.054 1611.71 113.154 1612.88 111.983L1619.98 104.879C1621.15 103.707 1623.05 103.707 1624.23 104.879Z" fill="#E0E0E0"/>
<path fill-rule="evenodd" clip-rule="evenodd" d="M1730.88 228.879C1732.05 227.707 1733.95 227.707 1735.12 228.879L1742.23 235.983C1743.4 237.154 1743.4 239.054 1742.23 240.225C1741.05 241.397 1739.15 241.397 1737.98 240.225L1730.88 233.121C1729.71 231.95 1729.71 230.05 1730.88 228.879Z" fill="#E0E0E0"/>
<path fill-rule="evenodd" clip-rule="evenodd" d="M1742.23 228.879C1743.4 230.05 1743.4 231.95 1742.23 233.121L1735.12 240.225C1733.95 241.397 1732.05 241.397 1730.88 240.225C1729.71 239.054 1729.71 237.154 1730.88 235.983L1737.98 228.879C1739.15 227.707 1741.05 227.707 1742.23 228.879Z" fill="#E0E0E0"/>
<path fill-rule="evenodd" clip-rule="evenodd" d="M1606.88 317.879C1608.05 316.707 1609.95 316.707 1611.12 317.879L1618.23 324.983C1619.4 326.154 1619.4 328.054 1618.23 329.225C1617.05 330.397 1615.15 330.397 1613.98 329.225L1606.88 322.121C1605.71 320.95 1605.71 319.05 1606.88 317.879Z" fill="#E0E0E0"/>
<path fill-rule="evenodd" clip-rule="evenodd" d="M1618.23 317.879C1619.4 319.05 1619.4 320.95 1618.23 322.121L1611.12 329.225C1609.95 330.397 1608.05 330.397 1606.88 329.225C1605.71 328.054 1605.71 326.154 1606.88 324.983L1613.98 317.879C1615.15 316.707 1617.05 316.707 1618.23 317.879Z" fill="#E0E0E0"/>
<path fill-rule="evenodd" clip-rule="evenodd" d="M1860.88 385.879C1862.05 384.707 1863.95 384.707 1865.12 385.879L1872.23 392.983C1873.4 394.154 1873.4 396.054 1872.23 397.225C1871.05 398.397 1869.15 398.397 1867.98 397.225L1860.88 390.121C1859.71 388.95 1859.71 387.05 1860.88 385.879Z" fill="#E0E0E0"/>
<path fill-rule="evenodd" clip-rule="evenodd" d="M1872.23 385.879C1873.4 387.05 1873.4 388.95 1872.23 390.121L1865.12 397.225C1863.95 398.397 1862.05 398.397 1860.88 397.225C1859.71 396.054 1859.71 394.154 1860.88 392.983L1867.98 385.879C1869.15 384.707 1871.05 384.707 1872.23 385.879Z" fill="#E0E0E0"/>
<path fill-rule="evenodd" clip-rule="evenodd" d="M1821.88 45.8787C1823.05 44.7071 1824.95 44.7071 1826.12 45.8787L1833.23 52.9827C1834.4 54.1543 1834.4 56.0537 1833.23 57.2253C1832.05 58.3969 1830.15 58.3969 1828.98 57.2253L1821.88 50.1213C1820.71 48.9498 1820.71 47.0503 1821.88 45.8787Z" fill="#E0E0E0"/>
<path fill-rule="evenodd" clip-rule="evenodd" d="M1833.23 45.8787C1834.4 47.0503 1834.4 48.9498 1833.23 50.1213L1826.12 57.2253C1824.95 58.3969 1823.05 58.3969 1821.88 57.2253C1820.71 56.0537 1820.71 54.1543 1821.88 52.9827L1828.98 45.8787C1830.15 44.7071 1832.05 44.7071 1833.23 45.8787Z" fill="#E0E0E0"/>
<path fill-rule="evenodd" clip-rule="evenodd" d="M1244.88 358.879C1246.05 357.707 1247.95 357.707 1249.12 358.879L1256.23 365.983C1257.4 367.154 1257.4 369.054 1256.23 370.225C1255.05 371.397 1253.15 371.397 1251.98 370.225L1244.88 363.121C1243.71 361.95 1243.71 360.05 1244.88 358.879Z" fill="#E0E0E0"/>
<path fill-rule="evenodd" clip-rule="evenodd" d="M1256.23 358.879C1257.4 360.05 1257.4 361.95 1256.23 363.121L1249.12 370.225C1247.95 371.397 1246.05 371.397 1244.88 370.225C1243.71 369.054 1243.71 367.154 1244.88 365.983L1251.98 358.879C1253.15 357.707 1255.05 357.707 1256.23 358.879Z" fill="#E0E0E0"/>
<path fill-rule="evenodd" clip-rule="evenodd" d="M365.879 197.879C367.05 196.707 368.95 196.707 370.121 197.879L377.225 204.983C378.397 206.154 378.397 208.054 377.225 209.225C376.054 210.397 374.154 210.397 372.983 209.225L365.879 202.121C364.707 200.95 364.707 199.05 365.879 197.879Z" fill="#E0E0E0"/>
<path fill-rule="evenodd" clip-rule="evenodd" d="M377.225 197.879C378.397 199.05 378.397 200.95 377.225 202.121L370.121 209.225C368.95 210.397 367.05 210.397 365.879 209.225C364.707 208.054 364.707 206.154 365.879 204.983L372.983 197.879C374.154 196.707 376.054 196.707 377.225 197.879Z" fill="#E0E0E0"/>
<path fill-rule="evenodd" clip-rule="evenodd" d="M251.879 73.8787C253.05 72.7071 254.95 72.7071 256.121 73.8787L263.225 80.9827C264.397 82.1543 264.397 84.0537 263.225 85.2253C262.054 86.3969 260.154 86.3969 258.983 85.2253L251.879 78.1213C250.707 76.9498 250.707 75.0503 251.879 73.8787Z" fill="#E0E0E0"/>
<path fill-rule="evenodd" clip-rule="evenodd" d="M263.225 73.8787C264.397 75.0503 264.397 76.9498 263.225 78.1213L256.121 85.2253C254.95 86.3969 253.05 86.3969 251.879 85.2253C250.707 84.0537 250.707 82.1543 251.879 80.9827L258.983 73.8787C260.154 72.7071 262.054 72.7071 263.225 73.8787Z" fill="#E0E0E0"/>
<path fill-rule="evenodd" clip-rule="evenodd" d="M118.879 237.879C120.05 236.707 121.95 236.707 123.121 237.879L130.225 244.983C131.397 246.154 131.397 248.054 130.225 249.225C129.054 250.397 127.154 250.397 125.983 249.225L118.879 242.121C117.707 240.95 117.707 239.05 118.879 237.879Z" fill="#E0E0E0"/>
<path fill-rule="evenodd" clip-rule="evenodd" d="M130.225 237.879C131.397 239.05 131.397 240.95 130.225 242.121L123.121 249.225C121.95 250.397 120.05 250.397 118.879 249.225C117.707 248.054 117.707 246.154 118.879 244.983L125.983 237.879C127.154 236.707 129.054 236.707 130.225 237.879Z" fill="#E0E0E0"/>
<path fill-rule="evenodd" clip-rule="evenodd" d="M0.878677 76.8787C2.05025 75.7071 3.94974 75.7071 5.12132 76.8787L12.2253 83.9827C13.3969 85.1543 13.3969 87.0537 12.2253 88.2253C11.0538 89.3969 9.15427 89.3969 7.9827 88.2253L0.878682 81.1213C-0.292892 79.9498 -0.292894 78.0503 0.878677 76.8787Z" fill="#E0E0E0"/>
<path fill-rule="evenodd" clip-rule="evenodd" d="M12.2253 76.8787C13.3969 78.0503 13.3969 79.9498 12.2253 81.1213L5.12132 88.2253C3.94974 89.3969 2.05025 89.3969 0.878677 88.2253C-0.292894 87.0537 -0.292892 85.1543 0.878682 83.9827L7.9827 76.8787C9.15427 75.7071 11.0538 75.7071 12.2253 76.8787Z" fill="#E0E0E0"/>
<path fill-rule="evenodd" clip-rule="evenodd" d="M299.879 297.879C301.05 296.707 302.95 296.707 304.121 297.879L311.225 304.983C312.397 306.154 312.397 308.054 311.225 309.225C310.054 310.397 308.154 310.397 306.983 309.225L299.879 302.121C298.707 300.95 298.707 299.05 299.879 297.879Z" fill="#E0E0E0"/>
<path fill-rule="evenodd" clip-rule="evenodd" d="M311.225 297.879C312.397 299.05 312.397 300.95 311.225 302.121L304.121 309.225C302.95 310.397 301.05 310.397 299.879 309.225C298.707 308.054 298.707 306.154 299.879 304.983L306.983 297.879C308.154 296.707 310.054 296.707 311.225 297.879Z" fill="#E0E0E0"/>
<path fill-rule="evenodd" clip-rule="evenodd" d="M631.879 445.879C633.05 444.707 634.95 444.707 636.121 445.879L643.225 452.983C644.397 454.154 644.397 456.054 643.225 457.225C642.054 458.397 640.154 458.397 638.983 457.225L631.879 450.121C630.707 448.95 630.707 447.05 631.879 445.879Z" fill="#E0E0E0"/>
<path fill-rule="evenodd" clip-rule="evenodd" d="M643.225 445.879C644.397 447.05 644.397 448.95 643.225 450.121L636.121 457.225C634.95 458.397 633.05 458.397 631.879 457.225C630.707 456.054 630.707 454.154 631.879 452.983L638.983 445.879C640.154 444.707 642.054 444.707 643.225 445.879Z" fill="#E0E0E0"/>
<path fill-rule="evenodd" clip-rule="evenodd" d="M1416.88 438.879C1418.05 437.707 1419.95 437.707 1421.12 438.879L1428.23 445.983C1429.4 447.154 1429.4 449.054 1428.23 450.225C1427.05 451.397 1425.15 451.397 1423.98 450.225L1416.88 443.121C1415.71 441.95 1415.71 440.05 1416.88 438.879Z" fill="#E0E0E0"/>
<path fill-rule="evenodd" clip-rule="evenodd" d="M1428.23 438.879C1429.4 440.05 1429.4 441.95 1428.23 443.121L1421.12 450.225C1419.95 451.397 1418.05 451.397 1416.88 450.225C1415.71 449.054 1415.71 447.154 1416.88 445.983L1423.98 438.879C1425.15 437.707 1427.05 437.707 1428.23 438.879Z" fill="#E0E0E0"/>
<path fill-rule="evenodd" clip-rule="evenodd" d="M447.879 398.879C449.05 397.707 450.95 397.707 452.121 398.879L459.225 405.983C460.397 407.154 460.397 409.054 459.225 410.225C458.054 411.397 456.154 411.397 454.983 410.225L447.879 403.121C446.707 401.95 446.707 400.05 447.879 398.879Z" fill="#E0E0E0"/>
<path fill-rule="evenodd" clip-rule="evenodd" d="M459.225 398.879C460.397 400.05 460.397 401.95 459.225 403.121L452.121 410.225C450.95 411.397 449.05 411.397 447.879 410.225C446.707 409.054 446.707 407.154 447.879 405.983L454.983 398.879C456.154 397.707 458.054 397.707 459.225 398.879Z" fill="#E0E0E0"/>
<path fill-rule="evenodd" clip-rule="evenodd" d="M204.879 483.879C206.05 482.707 207.95 482.707 209.121 483.879L216.225 490.983C217.397 492.154 217.397 494.054 216.225 495.225C215.054 496.397 213.154 496.397 211.983 495.225L204.879 488.121C203.707 486.95 203.707 485.05 204.879 483.879Z" fill="#E0E0E0"/>
<path fill-rule="evenodd" clip-rule="evenodd" d="M216.225 483.879C217.397 485.05 217.397 486.95 216.225 488.121L209.121 495.225C207.95 496.397 206.05 496.397 204.879 495.225C203.707 494.054 203.707 492.154 204.879 490.983L211.983 483.879C213.154 482.707 215.054 482.707 216.225 483.879Z" fill="#E0E0E0"/>
<path fill-rule="evenodd" clip-rule="evenodd" d="M880.879 213.879C882.05 212.707 883.95 212.707 885.121 213.879L892.225 220.983C893.397 222.154 893.397 224.054 892.225 225.225C891.054 226.397 889.154 226.397 887.983 225.225L880.879 218.121C879.707 216.95 879.707 215.05 880.879 213.879Z" fill="#E0E0E0"/>
<path fill-rule="evenodd" clip-rule="evenodd" d="M892.225 213.879C893.397 215.05 893.397 216.95 892.225 218.121L885.121 225.225C883.95 226.397 882.05 226.397 880.879 225.225C879.707 224.054 879.707 222.154 880.879 220.983L887.983 213.879C889.154 212.707 891.054 212.707 892.225 213.879Z" fill="#E0E0E0"/>
<path fill-rule="evenodd" clip-rule="evenodd" d="M1085.88 230.879C1087.05 229.707 1088.95 229.707 1090.12 230.879L1097.23 237.983C1098.4 239.154 1098.4 241.054 1097.23 242.225C1096.05 243.397 1094.15 243.397 1092.98 242.225L1085.88 235.121C1084.71 233.95 1084.71 232.05 1085.88 230.879Z" fill="#E0E0E0"/>
<path fill-rule="evenodd" clip-rule="evenodd" d="M1097.23 230.879C1098.4 232.05 1098.4 233.95 1097.23 235.121L1090.12 242.225C1088.95 243.397 1087.05 243.397 1085.88 242.225C1084.71 241.054 1084.71 239.154 1085.88 237.983L1092.98 230.879C1094.15 229.707 1096.05 229.707 1097.23 230.879Z" fill="#E0E0E0"/>
<path fill-rule="evenodd" clip-rule="evenodd" d="M1743.88 515.879C1745.05 514.707 1746.95 514.707 1748.12 515.879L1755.23 522.983C1756.4 524.154 1756.4 526.054 1755.23 527.225C1754.05 528.397 1752.15 528.397 1750.98 527.225L1743.88 520.121C1742.71 518.95 1742.71 517.05 1743.88 515.879Z" fill="#E0E0E0"/>
<path fill-rule="evenodd" clip-rule="evenodd" d="M1755.23 515.879C1756.4 517.05 1756.4 518.95 1755.23 520.121L1748.12 527.225C1746.95 528.397 1745.05 528.397 1743.88 527.225C1742.71 526.054 1742.71 524.154 1743.88 522.983L1750.98 515.879C1752.15 514.707 1754.05 514.707 1755.23 515.879Z" fill="#E0E0E0"/>
<path fill-rule="evenodd" clip-rule="evenodd" d="M871.879 438.879C873.05 437.707 874.95 437.707 876.121 438.879L883.225 445.983C884.397 447.154 884.397 449.054 883.225 450.225C882.054 451.397 880.154 451.397 878.983 450.225L871.879 443.121C870.707 441.95 870.707 440.05 871.879 438.879Z" fill="#E0E0E0"/>
<path fill-rule="evenodd" clip-rule="evenodd" d="M883.225 438.879C884.397 440.05 884.397 441.95 883.225 443.121L876.121 450.225C874.95 451.397 873.05 451.397 871.879 450.225C870.707 449.054 870.707 447.154 871.879 445.983L878.983 438.879C880.154 437.707 882.054 437.707 883.225 438.879Z" fill="#E0E0E0"/>
<path fill-rule="evenodd" clip-rule="evenodd" d="M1148.88 508.879C1150.05 507.707 1151.95 507.707 1153.12 508.879L1160.23 515.983C1161.4 517.154 1161.4 519.054 1160.23 520.225C1159.05 521.397 1157.15 521.397 1155.98 520.225L1148.88 513.121C1147.71 511.95 1147.71 510.05 1148.88 508.879Z" fill="#E0E0E0"/>
<path fill-rule="evenodd" clip-rule="evenodd" d="M1160.23 508.879C1161.4 510.05 1161.4 511.95 1160.23 513.121L1153.12 520.225C1151.95 521.397 1150.05 521.397 1148.88 520.225C1147.71 519.054 1147.71 517.154 1148.88 515.983L1155.98 508.879C1157.15 507.707 1159.05 507.707 1160.23 508.879Z" fill="#E0E0E0"/>
<path fill-rule="evenodd" clip-rule="evenodd" d="M844.879 561.879C846.05 560.707 847.95 560.707 849.121 561.879L856.225 568.983C857.397 570.154 857.397 572.054 856.225 573.225C855.054 574.397 853.154 574.397 851.983 573.225L844.879 566.121C843.707 564.95 843.707 563.05 844.879 561.879Z" fill="#E0E0E0"/>
<path fill-rule="evenodd" clip-rule="evenodd" d="M856.225 561.879C857.397 563.05 857.397 564.95 856.225 566.121L849.121 573.225C847.95 574.397 846.05 574.397 844.879 573.225C843.707 572.054 843.707 570.154 844.879 568.983L851.983 561.879C853.154 560.707 855.054 560.707 856.225 561.879Z" fill="#E0E0E0"/>
</svg>
