<svg width="50" height="50" viewBox="0 0 50 50" fill="none" xmlns="http://www.w3.org/2000/svg">
<path d="M40.2344 13.2812C40.2344 13.8203 40.6719 14.2578 41.2109 14.2578C41.75 14.2578 42.1875 13.8203 42.1875 13.2812C42.1875 12.7422 41.75 12.3047 41.2109 12.3047C40.6719 12.3047 40.2344 12.7422 40.2344 13.2812Z" fill="#383838"/>
<path d="M44.1407 25C44.1407 26.2508 44.0152 27.4993 43.768 28.7109C43.6601 29.2392 44.0011 29.755 44.5294 29.8629C44.5954 29.8767 44.661 29.8832 44.7259 29.8832C45.1802 29.8832 45.5872 29.5639 45.6818 29.1015C45.9554 27.7614 46.0938 26.3816 46.0938 25C46.0938 21.9249 45.427 18.9659 44.1113 16.2048C43.8794 15.718 43.2969 15.5113 42.8098 15.7432C42.3226 15.9751 42.1163 16.558 42.3482 17.0452C43.5376 19.5415 44.1407 22.2179 44.1407 25Z" fill="#383838"/>
<path d="M29.8828 33.7891H28.9062V21.0938C28.9062 20.5544 28.4691 20.1172 27.9297 20.1172H20.1172C19.5778 20.1172 19.1406 20.5544 19.1406 21.0938V25C19.1406 25.5394 19.5778 25.9766 20.1172 25.9766H21.0938V33.7891H20.1172C19.5778 33.7891 19.1406 34.2262 19.1406 34.7656V38.6719C19.1406 39.2113 19.5778 39.6484 20.1172 39.6484H29.8828C30.4222 39.6484 30.8594 39.2113 30.8594 38.6719V34.7656C30.8594 34.2262 30.4222 33.7891 29.8828 33.7891ZM28.9062 37.6953H21.0938V35.7422H22.0703C22.6097 35.7422 23.0469 35.305 23.0469 34.7656V25C23.0469 24.4606 22.6097 24.0234 22.0703 24.0234H21.0938V22.0703H26.9531V34.7656C26.9531 35.305 27.3907 35.7422 27.9297 35.7422H28.9062V37.6953Z" fill="#383838"/>
<path d="M25 18.1641C27.1538 18.1641 28.9062 16.4116 28.9062 14.2578C28.9062 12.104 27.1538 10.3516 25 10.3516C22.8462 10.3516 21.0938 12.104 21.0938 14.2578C21.0938 16.4116 22.8462 18.1641 25 18.1641ZM25 12.3047C26.0769 12.3047 26.9531 13.1809 26.9531 14.2578C26.9531 15.3347 26.0769 16.2109 25 16.2109C23.9231 16.2109 23.0469 15.3347 23.0469 14.2578C23.0469 13.1809 23.9231 12.3047 25 12.3047Z" fill="#383838"/>
<path d="M25 0C11.5258 0 4.25859e-05 11.504 4.25859e-05 25C4.25859e-05 29.6101 1.32107 34.5127 3.54847 38.221L0.0500151 48.7148C-0.0667146 49.0654 0.0244566 49.4526 0.286145 49.7139C0.548978 49.9767 0.936551 50.0664 1.2856 49.9496L11.7794 46.4516C15.4873 48.6794 20.39 50 25 50C38.4777 50 50 38.4945 50 25C50 11.5223 38.4949 0 25 0V0ZM25 48.0469C20.5777 48.0469 15.8772 46.7419 12.426 44.556C12.1815 44.4012 11.8767 44.3604 11.5944 44.4546L2.52079 47.4792L5.54547 38.4056C5.63855 38.1271 5.60116 37.822 5.444 37.574C3.25818 34.1232 1.95317 29.4224 1.95317 25C1.95317 12.5072 12.5073 1.95312 25 1.95312C37.4928 1.95312 48.0469 12.5072 48.0469 25C48.0469 37.4928 37.4928 48.0469 25 48.0469Z" fill="#383838"/>
</svg>
