<svg width="15" height="15" viewBox="0 0 15 15" fill="none" xmlns="http://www.w3.org/2000/svg">
<g clip-path="url(#clip0)">
<path d="M11.8547 9.29189C11.5476 8.97214 11.1772 8.80118 10.7847 8.80118C10.3953 8.80118 10.0217 8.96897 9.70195 9.28872L8.70154 10.286C8.61922 10.2416 8.53691 10.2005 8.45777 10.1593C8.34379 10.1023 8.23616 10.0485 8.14435 9.99154C7.20725 9.39636 6.35564 8.62073 5.53885 7.61715C5.14312 7.11695 4.87719 6.69589 4.68407 6.2685C4.94367 6.03106 5.18427 5.78412 5.41855 5.54668C5.50719 5.45804 5.59583 5.36623 5.68448 5.27759C6.34931 4.61276 6.34931 3.75165 5.68448 3.08682L4.8202 2.22254C4.72206 2.1244 4.62075 2.02309 4.52578 1.92178C4.33582 1.7255 4.13638 1.52289 3.9306 1.33293C3.62351 1.02901 3.25627 0.867554 2.87004 0.867554C2.4838 0.867554 2.11023 1.02901 1.79365 1.33293C1.79048 1.3361 1.79048 1.3361 1.78731 1.33927L0.710923 2.42515C0.305694 2.83038 0.0745869 3.32426 0.0239332 3.89727C-0.0520472 4.8217 0.220216 5.68282 0.429162 6.24634C0.942031 7.62981 1.70817 8.91199 2.85104 10.286C4.23768 11.9417 5.90609 13.2492 7.81193 14.1705C8.54008 14.5155 9.512 14.9239 10.5979 14.9936C10.6644 14.9968 10.734 14.9999 10.7973 14.9999C11.5286 14.9999 12.1428 14.7372 12.624 14.2148C12.6272 14.2085 12.6335 14.2053 12.6367 14.199C12.8013 13.9995 12.9913 13.8191 13.1907 13.6259C13.3268 13.4961 13.4661 13.36 13.6023 13.2175C13.9157 12.8915 14.0803 12.5116 14.0803 12.1222C14.0803 11.7296 13.9125 11.3529 13.5928 11.0363L11.8547 9.29189ZM12.9881 12.6255C12.9849 12.6255 12.9849 12.6287 12.9881 12.6255C12.8646 12.7585 12.738 12.8788 12.6019 13.0118C12.3961 13.208 12.1871 13.4138 11.9909 13.6449C11.6711 13.9868 11.2944 14.1483 10.8005 14.1483C10.753 14.1483 10.7024 14.1483 10.6549 14.1451C9.71461 14.085 8.84083 13.7177 8.1855 13.4043C6.39363 12.5369 4.8202 11.3054 3.5127 9.7446C2.43315 8.44344 1.71133 7.24042 1.23329 5.94875C0.938865 5.16045 0.831226 4.54627 0.878714 3.96692C0.910372 3.59652 1.05284 3.28943 1.3156 3.02667L2.39516 1.94711C2.55028 1.80148 2.71491 1.72233 2.87637 1.72233C3.07582 1.72233 3.23727 1.84264 3.33858 1.94394C3.34175 1.94711 3.34491 1.95028 3.34808 1.95344C3.5412 2.13389 3.72482 2.32068 3.91793 2.52013C4.01607 2.62144 4.11738 2.72274 4.21869 2.82722L5.08297 3.69149C5.41855 4.02707 5.41855 4.33733 5.08297 4.67291C4.99116 4.76472 4.90251 4.85653 4.8107 4.94517C4.54477 5.21743 4.2915 5.4707 4.01607 5.71764C4.00974 5.72397 4.00341 5.72714 4.00024 5.73347C3.72798 6.00573 3.77864 6.27166 3.83562 6.45212C3.83879 6.46162 3.84195 6.47111 3.84512 6.48061C4.06989 7.02514 4.38648 7.53801 4.86769 8.14901L4.87085 8.15218C5.74463 9.22857 6.66589 10.0675 7.68213 10.7102C7.81193 10.7925 7.9449 10.859 8.07153 10.9223C8.1855 10.9793 8.29314 11.0331 8.38495 11.0901C8.39761 11.0964 8.41028 11.1059 8.42294 11.1123C8.53058 11.1661 8.63189 11.1914 8.73636 11.1914C8.99913 11.1914 9.16375 11.0268 9.21757 10.973L10.3003 9.89023C10.4079 9.78259 10.5789 9.65279 10.7783 9.65279C10.9746 9.65279 11.1361 9.77626 11.2342 9.8839C11.2374 9.88707 11.2374 9.88707 11.2406 9.89023L12.9849 11.6346C13.311 11.9575 13.311 12.2899 12.9881 12.6255Z" fill="white"/>
<path d="M8.10637 3.56805C8.93582 3.70735 9.68929 4.09992 10.2908 4.70143C10.8923 5.30294 11.2817 6.05641 11.4242 6.88587C11.459 7.09481 11.6395 7.24044 11.8452 7.24044C11.8706 7.24044 11.8927 7.23728 11.918 7.23411C12.1523 7.19612 12.3074 6.97451 12.2695 6.74024C12.0985 5.73666 11.6236 4.82173 10.8986 4.09675C10.1737 3.37177 9.25873 2.89689 8.25516 2.72594C8.02089 2.68795 7.80244 2.84307 7.76129 3.07418C7.72013 3.30529 7.87209 3.53006 8.10637 3.56805Z" fill="white"/>
<path d="M14.9826 6.61676C14.7008 4.96418 13.922 3.4604 12.7253 2.26371C11.5286 1.06702 10.0249 0.288216 8.37229 0.00645476C8.14118 -0.0347013 7.92274 0.123591 7.88158 0.354699C7.84359 0.588972 7.99872 0.807415 8.23299 0.848572C9.70828 1.09867 11.0538 1.79833 12.1238 2.86522C13.1939 3.93528 13.8904 5.28077 14.1405 6.75605C14.1753 6.965 14.3558 7.11063 14.5615 7.11063C14.5869 7.11063 14.609 7.10746 14.6343 7.1043C14.8655 7.06947 15.0237 6.84786 14.9826 6.61676Z" fill="white"/>
</g>
<defs>
<clipPath id="clip0">
<rect width="15" height="15" fill="white"/>
</clipPath>
</defs>
</svg>
