<svg width="50" height="45" viewBox="0 0 50 45" fill="none" xmlns="http://www.w3.org/2000/svg">
<path d="M47.8028 18.5539H47.0708V16.3563V8.54379C47.0708 5.98598 44.9899 3.90503 42.4321 3.90503H22.317L8.74647 0.0276904C8.74256 0.0266161 8.73856 0.02603 8.73465 0.0249558C8.73065 0.0238816 8.72684 0.0223192 8.72283 0.0213427C8.71463 0.0192919 8.70653 0.0183153 8.69842 0.0165575C8.68582 0.0139208 8.67323 0.0111864 8.66063 0.00913566C8.6492 0.00728019 8.63797 0.00610831 8.62655 0.00474113C8.61327 0.00317863 8.60008 0.00181143 8.5869 0.00103019C8.57616 0.00044425 8.56551 0.000346518 8.55477 0.000151206C8.5411 -4.41064e-05 8.52752 -0.000141737 8.51395 0.000444199C8.50389 0.000834824 8.49383 0.00181132 8.48387 0.00259257C8.46991 0.00376444 8.45594 0.00503411 8.44217 0.00708489C8.4328 0.00845207 8.42352 0.0102099 8.41424 0.01187C8.39998 0.0144091 8.38592 0.0171433 8.37196 0.0205613C8.36327 0.0227097 8.35477 0.0251512 8.34618 0.0275926C8.33192 0.0316941 8.31785 0.0358934 8.30379 0.0407762C8.29588 0.0436082 8.28807 0.0466356 8.28016 0.0497606C8.266 0.0552294 8.25194 0.0609909 8.23817 0.0673386C8.23084 0.0707565 8.22371 0.0744675 8.21649 0.0780808C8.20272 0.0850144 8.18914 0.0920457 8.17586 0.0999558C8.16893 0.10396 8.16229 0.108257 8.15545 0.112553C8.14237 0.120757 8.12948 0.129155 8.11698 0.138237C8.11043 0.142925 8.10409 0.148003 8.09764 0.152983C8.08563 0.16226 8.07372 0.171733 8.06229 0.181792C8.05584 0.187456 8.04969 0.193413 8.04344 0.199272C8.0327 0.209428 8.02205 0.219584 8.0119 0.230327C8.00555 0.237065 7.99959 0.244096 7.99344 0.251127C7.98416 0.261772 7.97498 0.272514 7.96629 0.283745C7.96004 0.29185 7.95418 0.300151 7.94823 0.308452C7.94051 0.319291 7.9329 0.330229 7.92586 0.341459C7.91981 0.35103 7.91424 0.360991 7.90868 0.370854C7.90252 0.381694 7.89637 0.392631 7.89081 0.403861C7.88534 0.414799 7.88045 0.42603 7.87547 0.43726C7.87059 0.448295 7.86581 0.45933 7.86151 0.470658C7.85702 0.482572 7.85311 0.494779 7.84911 0.507084C7.84657 0.514994 7.84344 0.522416 7.8411 0.530424C7.83993 0.534428 7.83944 0.538334 7.83836 0.54224C7.83729 0.546244 7.83573 0.550053 7.83475 0.554057L6.99725 3.90483H4.63915C2.08652 3.90483 0.00917967 5.97739 0.000781249 8.52816C0.000683592 8.53344 0 8.53842 0 8.54359V33.9342C0 34.3385 0.329101 34.6666 0.732421 34.6666C1.13672 34.6666 1.46484 34.3385 1.46484 33.9342V11.9218C2.29531 12.7027 3.41191 13.1825 4.63915 13.1825H42.4321C42.433 13.1825 42.4338 13.1825 42.4347 13.1825C44.1835 13.1838 45.606 14.6071 45.606 16.3564V21.4837H37.5482C37.5477 21.4837 37.5473 21.4838 37.5468 21.4838C37.5256 21.4838 37.5045 21.4851 37.4835 21.4869C37.4602 21.489 37.4371 21.4923 37.4145 21.4965C37.4111 21.4971 37.4077 21.4974 37.4043 21.4981C37.3852 21.5019 37.3664 21.5069 37.3478 21.5122C37.3437 21.5134 37.3395 21.5142 37.3355 21.5154C37.3189 21.5205 37.3028 21.5266 37.2866 21.5327C37.2805 21.5351 37.2742 21.537 37.2681 21.5396C37.2546 21.5451 37.2416 21.5517 37.2286 21.558C37.22 21.5621 37.2114 21.5659 37.203 21.5703C37.1928 21.5757 37.1832 21.5819 37.1735 21.5877C37.1626 21.5942 37.1516 21.6004 37.141 21.6074C37.1339 21.6121 37.1274 21.6175 37.1205 21.6225C37.108 21.6315 37.0954 21.6403 37.0835 21.6502C37.0783 21.6545 37.0736 21.6593 37.0686 21.6637C37.0558 21.6748 37.043 21.6859 37.0309 21.698C37.0238 21.7051 37.0173 21.7129 37.0106 21.7203C37.0011 21.7306 36.9913 21.7406 36.9824 21.7516C36.9672 21.77 36.9531 21.7892 36.9398 21.809C36.9395 21.8093 36.9392 21.8097 36.939 21.8101L33.0329 27.6695C33.0057 27.7104 32.9827 27.7536 32.9644 27.7986C32.9575 27.8154 32.9519 27.8325 32.9463 27.8495C32.9447 27.8547 32.9425 27.8597 32.941 27.8648C32.9355 27.8829 32.9313 27.9012 32.9273 27.9193C32.9262 27.9241 32.9248 27.9288 32.9239 27.9336C32.9206 27.95 32.9185 27.9665 32.9164 27.983C32.9156 27.99 32.9142 27.9971 32.9135 28.0042C32.9121 28.0178 32.9118 28.0312 32.9114 28.0448C32.9109 28.0552 32.91 28.0655 32.91 28.076C32.91 28.086 32.9109 28.0961 32.9113 28.1062C32.9118 28.12 32.9121 28.134 32.9135 28.1479C32.9142 28.1546 32.9155 28.1613 32.9163 28.1681C32.9185 28.1849 32.9206 28.2017 32.924 28.2184C32.9248 28.2229 32.9262 28.2274 32.9273 28.232C32.9313 28.2504 32.9356 28.2688 32.941 28.287C32.9426 28.2922 32.9448 28.2972 32.9464 28.3024C32.952 28.3194 32.9576 28.3365 32.9645 28.3533C32.9828 28.3982 33.0059 28.4416 33.0332 28.4825L36.9392 34.3411C36.9394 34.3414 36.9396 34.3416 36.9398 34.3419C36.9555 34.3652 36.9727 34.3875 36.9908 34.4089C36.9968 34.4159 37.0032 34.4225 37.0093 34.4291C37.0217 34.4427 37.0346 34.4558 37.048 34.4683C37.0559 34.4758 37.0637 34.483 37.0717 34.4899C37.086 34.5021 37.1007 34.5136 37.1158 34.5247C37.1227 34.5297 37.1292 34.5351 37.1362 34.5398C37.1581 34.5548 37.1809 34.5685 37.2044 34.581C37.2104 34.5842 37.2165 34.5868 37.2225 34.5897C37.2412 34.5991 37.2604 34.6078 37.28 34.6155C37.2876 34.6185 37.2952 34.6213 37.303 34.624C37.3216 34.6307 37.3406 34.6365 37.3599 34.6417C37.3678 34.6437 37.3756 34.6459 37.3836 34.6478C37.4034 34.6524 37.4236 34.6559 37.444 34.6589C37.4514 34.66 37.4587 34.6614 37.4661 34.6623C37.4913 34.6651 37.5169 34.6667 37.5429 34.6669C37.5449 34.6669 37.547 34.6673 37.5491 34.6673C37.5495 34.6673 37.55 34.6672 37.5505 34.6672H45.6063V39.7949C45.6063 41.5451 44.1824 42.9689 42.4324 42.9689H4.63954C2.88955 42.9689 1.46572 41.5451 1.46572 39.7949C1.46572 39.7911 1.46523 39.7874 1.46513 39.7836V36.8642C1.46513 36.4609 1.13701 36.1318 0.732713 36.1318C0.329394 36.1318 0.000292968 36.4609 0.000292968 36.8642V39.7949C0.000292968 39.8025 0.00117187 39.8099 0.00146484 39.8175C0.0136718 42.3649 2.08935 44.4338 4.63954 44.4338H42.4324C44.99 44.4338 47.0707 42.3532 47.0711 39.7957C47.0711 39.7956 47.0711 39.7955 47.0711 39.7953V34.6672H47.8031C49.0145 34.6672 50 33.6816 50 32.4703V20.7508C49.9997 19.5395 49.0142 18.5539 47.8028 18.5539ZM9.07225 1.64419L21.996 5.33686C21.9965 5.33706 21.9972 5.33715 21.9978 5.33735L30.6595 7.81215H7.53065L9.07225 1.64419ZM45.6059 12.978C44.7755 12.1973 43.6591 11.7175 42.4321 11.7175C42.4309 11.7175 42.4297 11.7177 42.4283 11.7177H4.63915C2.88906 11.7177 1.46523 10.2939 1.46523 8.54379C1.46523 6.79369 2.88906 5.36987 4.63915 5.36987H6.63114L6.02079 7.81215H4.63935C4.23486 7.81215 3.90693 8.14008 3.90693 8.54457C3.90693 8.94906 4.23486 9.27699 4.63935 9.27699H6.59012C6.5911 9.27699 6.59218 9.27719 6.59325 9.27719C6.59403 9.27719 6.59481 9.27699 6.5955 9.27699H35.8866C35.8875 9.27699 35.8884 9.27719 35.8893 9.27719C35.8901 9.27719 35.8909 9.27699 35.8916 9.27699H41.4547C41.8592 9.27699 42.1871 8.94906 42.1871 8.54457C42.1871 8.14008 41.8592 7.81215 41.4547 7.81215H35.9915L27.4438 5.36987H42.432C44.182 5.36987 45.6059 6.79369 45.6059 8.54379V12.978ZM48.5349 32.4699C48.5349 32.8735 48.2065 33.2019 47.8028 33.2019H37.9402L34.5223 28.0756L37.9402 22.9485H47.8028C47.8131 22.9485 47.8231 22.9473 47.8332 22.9469C48.0789 22.9435 48.3148 22.8997 48.5349 22.8218V32.4699ZM47.8028 21.4828C47.7978 21.4828 47.7928 21.4835 47.7877 21.4836H47.0708V20.0188H47.8028C48.2065 20.0188 48.5349 20.3472 48.5349 20.7508C48.5349 21.1544 48.2065 21.4828 47.8028 21.4828Z" fill="#383838"/>
</svg>
