<svg width="60" height="60" viewBox="0 0 60 60" fill="none" xmlns="http://www.w3.org/2000/svg">
<g opacity="0.5">
<path d="M48.5164 17.4316C49.1635 17.4316 49.6883 16.907 49.6883 16.2598V3.51562C49.6883 1.57711 48.1112 0 46.1727 0H3.51642C1.5779 0 0.000793457 1.57711 0.000793457 3.51562V56.4844C0.000793457 58.4229 1.5779 60 3.51642 60H46.1727C48.1112 60 49.6883 58.4229 49.6883 56.4844V47.8509C49.6883 47.2037 49.1635 46.6791 48.5164 46.6791C47.8693 46.6791 47.3445 47.2037 47.3445 47.8509V56.4844C47.3445 57.1305 46.8188 57.6562 46.1727 57.6562H3.51642C2.87025 57.6562 2.34454 57.1305 2.34454 56.4844V3.51562C2.34454 2.86945 2.87025 2.34375 3.51642 2.34375H46.1727C46.8188 2.34375 47.3445 2.86945 47.3445 3.51562V16.2598C47.3445 16.907 47.8693 17.4316 48.5164 17.4316Z" fill="#A7A7A7"/>
<path d="M24.8445 6.32812C18.8997 6.32812 14.0633 11.1646 14.0633 17.1094C14.0633 20.1934 15.3652 22.9787 17.4479 24.9456C17.4869 24.9873 17.5284 25.0268 17.5738 25.0628C19.4922 26.8181 22.0454 27.8905 24.8444 27.8905C27.6434 27.8905 30.1966 26.818 32.1151 25.0628C32.1604 25.0268 32.2019 24.9872 32.2409 24.9456C34.3238 22.9787 35.6258 20.1934 35.6258 17.1094C35.6258 11.1646 30.7893 6.32812 24.8445 6.32812ZM24.8445 25.5469C22.931 25.5469 21.165 24.9056 19.7479 23.828C20.7779 22.0016 22.6999 20.8594 24.8445 20.8594C26.9892 20.8594 28.9112 22.0016 29.9411 23.828C28.524 24.9056 26.7581 25.5469 24.8445 25.5469ZM22.9695 16.6406V15.8789C22.9695 14.8451 23.8107 14.0039 24.8445 14.0039C25.8784 14.0039 26.7195 14.8451 26.7195 15.8789V16.6406C26.7195 17.6745 25.8784 18.5156 24.8445 18.5156C23.8107 18.5156 22.9695 17.6745 22.9695 16.6406ZM31.6344 22.1113C30.7701 20.8295 29.5724 19.8326 28.1817 19.2171C28.7336 18.5038 29.0633 17.6102 29.0633 16.6406V15.8789C29.0633 13.5526 27.1708 11.6602 24.8445 11.6602C22.5183 11.6602 20.6258 13.5526 20.6258 15.8789V16.6406C20.6258 17.6102 20.9554 18.5038 21.5074 19.2171C20.1167 19.8326 18.919 20.8295 18.0547 22.1113C17.0201 20.7105 16.407 18.9805 16.407 17.1094C16.407 12.4569 20.1921 8.67188 24.8445 8.67188C29.497 8.67188 33.282 12.4569 33.282 17.1094C33.282 18.9805 32.669 20.7105 31.6344 22.1113Z" fill="#A7A7A7"/>
<path d="M31.1727 51.3281H24.8445C24.1974 51.3281 23.6727 51.8528 23.6727 52.5C23.6727 53.1472 24.1974 53.6719 24.8445 53.6719H31.1727C31.8198 53.6719 32.3445 53.1472 32.3445 52.5C32.3445 51.8528 31.8198 51.3281 31.1727 51.3281Z" fill="#A7A7A7"/>
<path d="M31.1727 44.7656H14.532C13.8849 44.7656 13.3602 45.2903 13.3602 45.9375C13.3602 46.5847 13.8849 47.1094 14.532 47.1094H31.1727C31.8198 47.1094 32.3445 46.5847 32.3445 45.9375C32.3445 45.2903 31.8198 44.7656 31.1727 44.7656Z" fill="#A7A7A7"/>
<path d="M31.1727 38.2031H14.532C13.8849 38.2031 13.3602 38.7278 13.3602 39.375C13.3602 40.0222 13.8849 40.5469 14.532 40.5469H31.1727C31.8198 40.5469 32.3445 40.0222 32.3445 39.375C32.3445 38.7278 31.8198 38.2031 31.1727 38.2031Z" fill="#A7A7A7"/>
<path d="M10.3554 31.984C10.1375 31.766 9.83519 31.6406 9.52582 31.6406C9.2175 31.6406 8.91515 31.766 8.6973 31.984C8.47933 32.202 8.35394 32.5043 8.35394 32.8125C8.35394 33.1207 8.47922 33.423 8.6973 33.641C8.91644 33.859 9.2175 33.9844 9.52582 33.9844C9.83519 33.9844 10.1364 33.859 10.3554 33.641C10.5734 33.423 10.6989 33.1207 10.6989 32.8125C10.6989 32.5043 10.5735 32.202 10.3554 31.984Z" fill="#A7A7A7"/>
<path d="M10.3554 38.5465C10.1364 38.3285 9.83519 38.2031 9.52582 38.2031C9.2175 38.2031 8.91644 38.3285 8.6973 38.5465C8.47933 38.7645 8.35394 39.0668 8.35394 39.375C8.35394 39.6832 8.47922 39.9855 8.6973 40.2035C8.91644 40.4215 9.2175 40.5469 9.52582 40.5469C9.83519 40.5469 10.1364 40.4215 10.3554 40.2035C10.5734 39.9855 10.6989 39.6832 10.6989 39.375C10.6989 39.0668 10.5735 38.7645 10.3554 38.5465Z" fill="#A7A7A7"/>
<path d="M10.3554 45.109C10.1364 44.891 9.83519 44.7656 9.52582 44.7656C9.2175 44.7656 8.91644 44.891 8.6973 45.109C8.47933 45.327 8.35394 45.6293 8.35394 45.9375C8.35394 46.2457 8.47922 46.548 8.6973 46.766C8.91515 46.984 9.2175 47.1094 9.52582 47.1094C9.83519 47.1094 10.1375 46.984 10.3554 46.766C10.5734 46.548 10.6989 46.2457 10.6989 45.9375C10.6989 45.6293 10.5735 45.327 10.3554 45.109Z" fill="#A7A7A7"/>
<path d="M31.1727 31.6406H14.532C13.8849 31.6406 13.3602 32.1653 13.3602 32.8125C13.3602 33.4597 13.8849 33.9844 14.532 33.9844H31.1727C31.8198 33.9844 32.3445 33.4597 32.3445 32.8125C32.3445 32.1653 31.8198 31.6406 31.1727 31.6406Z" fill="#A7A7A7"/>
<path d="M57.5393 15.2719C56.4008 14.6146 55.0745 14.44 53.8044 14.7802C52.5346 15.1205 51.4731 15.935 50.8159 17.0734L36.0688 42.616C35.988 42.756 35.9369 42.9113 35.919 43.072L34.881 52.3701C34.8294 52.8327 35.0565 53.2822 35.4596 53.515C35.6416 53.62 35.8438 53.672 36.0455 53.672C36.2906 53.672 36.5348 53.5953 36.7405 53.4438L44.2738 47.8956C44.404 47.7998 44.5129 47.678 44.5937 47.538L59.3407 21.9954C60.6977 19.6451 59.8896 16.6289 57.5393 15.2719ZM37.5074 49.9681L38.0495 45.1128L41.4411 47.071L37.5074 49.9681ZM43.1499 45.3511L38.6845 42.773L50.5187 22.2757L54.9841 24.8539L43.1499 45.3511ZM57.311 20.8234L56.1559 22.8242L51.6905 20.2461L52.8456 18.2453C53.1899 17.6489 53.7458 17.2224 54.411 17.0441C55.0763 16.8658 55.771 16.9574 56.3673 17.3017C56.9637 17.646 57.3902 18.202 57.5685 18.8671C57.7467 19.5323 57.6553 20.2271 57.311 20.8234Z" fill="#A7A7A7"/>
</g>
</svg>
