<svg width="17" height="16" viewBox="0 0 17 16" fill="none" xmlns="http://www.w3.org/2000/svg">
<path fill-rule="evenodd" clip-rule="evenodd" d="M10.512 11.7489C9.43704 12.5356 8.11141 13 6.67731 13C3.08746 13 0.177307 10.0899 0.177307 6.5C0.177307 2.91015 3.08746 0 6.67731 0C10.2672 0 13.1773 2.91015 13.1773 6.5C13.1773 7.9341 12.7129 9.25973 11.9262 10.3347L15.8844 14.2929C16.2749 14.6834 16.2749 15.3166 15.8844 15.7071C15.4939 16.0976 14.8607 16.0976 14.4702 15.7071L10.512 11.7489ZM11.1773 6.5C11.1773 8.98528 9.16259 11 6.67731 11C4.19203 11 2.17731 8.98528 2.17731 6.5C2.17731 4.01472 4.19203 2 6.67731 2C9.16259 2 11.1773 4.01472 11.1773 6.5Z" fill="#BEDCF4"/>
</svg>
