<svg width="27" height="50" viewBox="0 0 27 50" fill="none" xmlns="http://www.w3.org/2000/svg">
<path d="M10.8501 3.33325C10.3901 3.33325 10.0209 3.70659 10.0209 4.16655C10.0209 4.62651 10.3975 4.99985 10.8584 4.99985C11.3192 4.99985 11.6917 4.62651 11.6917 4.16655C11.6917 3.70659 11.3192 3.33325 10.8584 3.33325H10.8501Z" fill="#383838"/>
<path d="M11.6667 44.9999C11.6667 45.9191 12.4141 46.6667 13.3334 46.6667C14.2525 46.6667 15.0001 45.9192 15.0001 44.9999C15.0001 44.0808 14.2526 43.3333 13.3334 43.3333C12.4142 43.3333 11.6667 44.0808 11.6667 44.9999Z" fill="#383838"/>
<path d="M0.833398 38.3333C1.29336 38.3333 1.6667 37.96 1.6667 37.5V4.1667C1.6667 2.95166 2.95166 1.6667 4.1667 1.6667H22.5C23.715 1.6667 25 2.95166 25 4.1667C25 4.62666 25.3733 5 25.8333 5C26.2933 5 26.6666 4.62666 26.6666 4.1667C26.6667 2.025 24.6417 0 22.5001 0H4.1667C2.025 0 0 2.025 0 4.1667V37.5C9.76563e-05 37.96 0.373437 38.3333 0.833398 38.3333Z" fill="#383838"/>
<path d="M14.1668 3.33325C13.7068 3.33325 13.3335 3.70659 13.3335 4.16655C13.3335 4.62651 13.7068 4.99985 14.1668 4.99985H17.5001C17.96 4.99985 18.3334 4.62651 18.3334 4.16655C18.3334 3.70659 17.96 3.33325 17.5001 3.33325H14.1668Z" fill="#383838"/>
<path d="M20.8334 15C21.0468 15 21.2601 14.9184 21.4226 14.7559C21.7485 14.43 21.7485 13.9033 21.4226 13.5775L19.7559 11.9108C19.43 11.5851 18.9034 11.5851 18.5776 11.9108C18.2518 12.2367 18.2518 12.7634 18.5776 13.0892L20.2443 14.7559C20.4068 14.9184 20.6201 15 20.8334 15Z" fill="#383838"/>
<path d="M13.5775 11.9109C13.2518 12.2368 13.2518 12.7635 13.5775 13.0892L20.2442 19.7559C20.4067 19.9184 20.6201 20.0001 20.8334 20.0001C21.0468 20.0001 21.2601 19.9184 21.4226 19.7559C21.7484 19.43 21.7484 18.9034 21.4226 18.5776L14.7559 11.9109C14.4301 11.585 13.9034 11.585 13.5775 11.9109Z" fill="#383838"/>
<path d="M25.8334 6.66675H4.16672C3.70675 6.66675 3.33342 7.04009 3.33342 7.50005C3.33342 7.96001 3.70675 8.33335 4.16672 8.33335H25V45.8334C25 47.0484 23.7151 48.3334 22.5 48.3334H4.16672C2.95168 48.3334 1.66672 47.0484 1.66672 45.8334V41.6666H22.5C22.96 41.6666 23.3333 41.2933 23.3333 40.8334C23.3333 40.3734 22.96 40 22.5 40H0.833415C0.373454 40 0.000114441 40.3734 0.000114441 40.8334V45.8334C0.000114441 47.975 2.02511 50 4.16681 50H22.5001C24.6418 50 26.6668 47.975 26.6668 45.8334V7.50005C26.6667 7.04009 26.2934 6.66675 25.8334 6.66675Z" fill="#383838"/>
</svg>
