<svg width="31" height="31" viewBox="0 0 31 31" fill="none" xmlns="http://www.w3.org/2000/svg">
<path d="M15.3716 0.000121838C11.5195 -0.00479437 7.80622 1.43627 4.96876 4.03734C2.13131 6.63842 0.37704 10.2094 0.0540791 14.0416C-0.268882 17.8739 0.863071 21.6873 3.22531 24.7251C5.58755 27.7629 9.00742 29.8031 12.8063 30.4408V18.5353H9.10478V14.2509H12.8099V11.0916C12.8099 7.43285 15.0528 5.42055 18.3273 5.42055C19.4327 5.4169 20.5374 5.47308 21.6367 5.58885V9.4287H19.3645C17.5834 9.4287 17.2352 10.2739 17.2352 11.5142V14.2491H21.4846L20.9349 18.5335H17.2352V30.5506C21.1292 30.0911 24.6995 28.1616 27.214 25.1579C29.7285 22.1542 30.9966 18.3039 30.7583 14.3966C30.5199 10.4892 28.7932 6.82098 25.9322 4.14409C23.0712 1.4672 19.2927 -0.0154766 15.3716 0.000121838Z" fill="#fff"/>
</svg>
