<svg width="31" height="31" viewBox="0 0 31 31" fill="none" xmlns="http://www.w3.org/2000/svg">
<g>
<path d="M12.498 15.2756C12.498 16.7952 13.7559 18.0527 15.2754 18.0527C16.7954 18.0527 18.0527 16.7952 18.0527 15.2756C18.0527 13.7559 16.7954 12.4983 15.2754 12.4983C13.7559 12.4983 12.498 13.7559 12.498 15.2756Z" fill="white"/>
<path fill-rule="evenodd" clip-rule="evenodd" d="M18.6289 8.51538C17.7383 8.46313 17.4761 8.46313 15.2754 8.46313C13.022 8.46313 12.7603 8.46313 11.9214 8.51538C11.1294 8.51538 10.7114 8.65576 10.4023 8.75952L10.3496 8.77734C9.98291 8.93457 9.7207 9.0918 9.40625 9.40625C9.0918 9.66821 8.93457 9.98267 8.77734 10.3496C8.67285 10.6638 8.56787 11.1355 8.51562 11.9216C8.46289 12.8125 8.46289 13.0745 8.46289 15.2754C8.46289 17.4763 8.46289 17.7383 8.51562 18.6292C8.51562 19.4207 8.65576 19.8386 8.75928 20.1475L8.77734 20.2012C8.93457 20.5679 9.0918 20.8301 9.40625 21.1445C9.66846 21.4587 9.98291 21.616 10.3496 21.7732C10.6641 21.8779 11.1357 21.9829 11.9214 22.0352C12.8125 22.0876 13.0742 22.0876 15.2754 22.0876C17.4761 22.0876 17.7383 22.0876 18.6289 22.0352C19.4214 22.0352 19.8394 21.8948 20.1484 21.791L20.2012 21.7732C20.5679 21.616 20.8301 21.4587 21.1445 21.1445C21.459 20.8823 21.6162 20.5679 21.7734 20.2012C21.8779 19.8867 21.9829 19.415 22.0352 18.6292C22.0879 17.7383 22.0879 17.4763 22.0879 15.2754C22.0879 13.0745 22.0879 12.8125 22.0352 11.9216C22.0352 11.1296 21.895 10.7114 21.791 10.4028L21.7734 10.3496C21.6162 9.98267 21.459 9.7207 21.1445 9.40625C20.8823 9.0918 20.5679 8.93457 20.2012 8.77734C19.8867 8.67261 19.415 8.56787 18.6289 8.51538ZM10.9785 15.2756C10.9785 12.9175 12.9175 10.9785 15.2754 10.9785C17.6338 10.9785 19.5728 12.9175 19.5728 15.2756C19.5728 17.6335 17.6338 19.5725 15.2754 19.5725C12.9175 19.5725 10.9785 17.6335 10.9785 15.2756ZM19.7305 11.8164C20.2803 11.8164 20.7261 11.3706 20.7261 10.8208C20.7261 10.271 20.2803 9.8252 19.7305 9.8252C19.1807 9.8252 18.7349 10.271 18.7349 10.8208C18.7349 11.3706 19.1807 11.8164 19.7305 11.8164Z" fill="white"/>
<path fill-rule="evenodd" clip-rule="evenodd" d="M15.2754 30.5505C23.7114 30.5505 30.5508 23.7117 30.5508 15.2754C30.5508 6.83887 23.7114 0 15.2754 0C6.83887 0 0 6.83887 0 15.2754C0 23.7117 6.83887 30.5505 15.2754 30.5505ZM11.8169 6.99585C12.7075 6.94336 13.022 6.94336 15.2754 6.94336C17.5288 6.94336 17.7905 6.94336 18.7339 6.99585C19.6245 6.99585 20.2534 7.15308 20.7778 7.36255C21.3018 7.57227 21.7734 7.83423 22.2446 8.30591C22.7163 8.77734 22.9785 9.24902 23.188 9.77319C23.3979 10.3496 23.5024 10.926 23.5547 11.8169C23.6074 12.7075 23.6074 12.9697 23.6074 15.2754C23.6074 17.5811 23.6074 17.843 23.5547 18.7339C23.5547 19.6248 23.3979 20.2537 23.188 20.7776C22.9785 21.3015 22.7163 21.7732 22.2446 22.2449C21.7734 22.7166 21.3018 22.9785 20.7778 23.188C20.2012 23.3977 19.6245 23.5024 18.7339 23.5549C17.8433 23.6074 17.5811 23.6074 15.2754 23.6074C12.9697 23.6074 12.7075 23.6074 11.8169 23.5549C10.9258 23.5549 10.2969 23.3977 9.77295 23.188C9.24902 22.9785 8.77734 22.7166 8.30566 22.2449C7.83398 21.7732 7.57227 21.3015 7.36279 20.7776C7.15283 20.2012 7.04834 19.6248 6.99561 18.7339C6.94336 17.843 6.94336 17.5286 6.94336 15.2754C6.94336 13.022 6.94336 12.7075 6.99561 11.8691C6.99561 10.9783 7.15283 10.3496 7.36279 9.82544C7.57227 9.24902 7.88672 8.77734 8.3584 8.30591C8.83008 7.83423 9.30127 7.57227 9.82568 7.36255C10.3496 7.15308 10.9258 7.0481 11.8169 6.99585Z" fill="white"/>
</g>
</svg>
