<svg width="31" height="31" viewBox="0 0 31 31" fill="none" xmlns="http://www.w3.org/2000/svg">
<path d="M30.7867 15.2753C30.7867 23.7114 23.8946 30.5506 15.3933 30.5506C6.89205 30.5506 0 23.712 0 15.2753C0 6.83863 6.89205 0 15.3933 0C23.8946 0 30.7867 6.8392 30.7867 15.2753ZM21.6157 8.42465L6.17683 14.4345C6.17683 14.4345 5.44604 14.6823 5.50372 15.1402C5.5614 15.5981 6.15722 15.8082 6.15722 15.8082L10.0407 17.1057C10.0407 17.1057 11.2133 20.9217 11.4441 21.6463C11.6748 22.3709 11.8599 22.3904 11.8599 22.3904C12.0745 22.4831 12.2706 22.3331 12.2706 22.3331L14.7802 20.0626L18.6926 23.0389C19.7498 23.4968 20.1345 22.5426 20.1345 22.5426L22.8841 8.78696C22.8835 7.87118 21.6146 8.42465 21.6146 8.42465H21.6157Z" fill="white"/>
</svg>
