<svg width="22" height="22" viewBox="0 0 22 22" fill="none" xmlns="http://www.w3.org/2000/svg">
<g clip-path="url(#clip0)">
<path d="M17.387 13.6282C16.9366 13.1592 16.3933 12.9084 15.8175 12.9084C15.2464 12.9084 14.6985 13.1545 14.2295 13.6235L12.7623 15.0861C12.6416 15.0211 12.5208 14.9608 12.4047 14.9004C12.2376 14.8168 12.0797 14.7379 11.9451 14.6543C10.5707 13.7814 9.32163 12.6438 8.12367 11.1719C7.54326 10.4382 7.15323 9.82069 6.86999 9.19385C7.25074 8.8456 7.60363 8.48343 7.94723 8.13518C8.07724 8.00517 8.20725 7.87052 8.33726 7.74051C9.31234 6.76543 9.31234 5.50246 8.33726 4.52738L7.06965 3.25977C6.92571 3.11583 6.77713 2.96725 6.63783 2.81866C6.35923 2.53078 6.06671 2.23361 5.7649 1.95502C5.3145 1.50927 4.77589 1.27246 4.20941 1.27246C3.64293 1.27246 3.09503 1.50927 2.6307 1.95502C2.62606 1.95966 2.62606 1.95966 2.62142 1.96431L1.04271 3.55694C0.448377 4.15128 0.10942 4.87562 0.035128 5.71605C-0.07631 7.07188 0.32301 8.33485 0.629464 9.16134C1.38167 11.1904 2.50534 13.071 4.18155 15.0861C6.21529 17.5146 8.66229 19.4322 11.4575 20.7834C12.5255 21.2895 13.9509 21.8885 15.5436 21.9906C15.6411 21.9953 15.7432 21.9999 15.8361 21.9999C16.9087 21.9999 17.8095 21.6145 18.5153 20.8484C18.5199 20.8391 18.5292 20.8345 18.5338 20.8252C18.7753 20.5327 19.0539 20.268 19.3464 19.9848C19.5461 19.7944 19.7504 19.5947 19.95 19.3858C20.4097 18.9075 20.6512 18.3503 20.6512 17.7792C20.6512 17.2035 20.4051 16.6509 19.9361 16.1866L17.387 13.6282ZM19.0492 18.5175C19.0446 18.5175 19.0446 18.5221 19.0492 18.5175C18.8682 18.7125 18.6824 18.889 18.4828 19.084C18.181 19.3719 17.8745 19.6737 17.5866 20.0126C17.1176 20.5141 16.5651 20.7509 15.8408 20.7509C15.7711 20.7509 15.6968 20.7509 15.6272 20.7463C14.2481 20.658 12.9666 20.1194 12.0054 19.6597C9.37735 18.3875 7.06965 16.5813 5.15199 14.2921C3.56864 12.3838 2.50998 10.6193 1.80885 8.72488C1.37703 7.56871 1.21916 6.66792 1.28881 5.8182C1.33524 5.27494 1.54418 4.82455 1.92957 4.43916L3.51292 2.85581C3.74044 2.64222 3.98189 2.52614 4.2187 2.52614C4.51122 2.52614 4.74803 2.70258 4.89661 2.85117C4.90125 2.85581 4.9059 2.86045 4.91054 2.8651C5.19378 3.12976 5.46309 3.40371 5.74633 3.69624C5.89027 3.84482 6.03885 3.99341 6.18743 4.14663L7.45504 5.41424C7.94723 5.90643 7.94723 6.36146 7.45504 6.85365C7.32039 6.9883 7.19038 7.12296 7.05572 7.25297C6.66569 7.65229 6.29423 8.02375 5.89027 8.38592C5.88098 8.39521 5.87169 8.39985 5.86705 8.40914C5.46773 8.80846 5.54202 9.19849 5.6256 9.46315C5.63024 9.47708 5.63489 9.49101 5.63953 9.50494C5.9692 10.3036 6.43353 11.0558 7.1393 11.9519L7.14394 11.9566C8.42548 13.5353 9.77667 14.7657 11.2672 15.7083C11.4575 15.8291 11.6525 15.9266 11.8383 16.0194C12.0054 16.103 12.1633 16.1819 12.298 16.2655C12.3165 16.2748 12.3351 16.2887 12.3537 16.298C12.5115 16.377 12.6601 16.4141 12.8134 16.4141C13.1987 16.4141 13.4402 16.1727 13.5191 16.0937L15.1071 14.5057C15.265 14.3479 15.5157 14.1575 15.8082 14.1575C16.0961 14.1575 16.3329 14.3386 16.4769 14.4964C16.4815 14.5011 16.4815 14.5011 16.4862 14.5057L19.0446 17.0642C19.5229 17.5378 19.5229 18.0253 19.0492 18.5175Z" fill="#A7A7A7"/>
<path d="M11.8893 5.23324C13.1058 5.43755 14.2109 6.01331 15.0931 6.89553C15.9753 7.77774 16.5465 8.88284 16.7554 10.0994C16.8065 10.4058 17.0712 10.6194 17.373 10.6194C17.4101 10.6194 17.4426 10.6148 17.4798 10.6101C17.8234 10.5544 18.0509 10.2294 17.9952 9.88578C17.7444 8.41387 17.0479 7.07197 15.9846 6.00867C14.9213 4.94536 13.5794 4.24887 12.1075 3.99814C11.7639 3.94242 11.4435 4.16994 11.3832 4.5089C11.3228 4.84785 11.5457 5.17752 11.8893 5.23324Z" fill="#A7A7A7"/>
<path d="M21.9745 9.70466C21.5613 7.28089 20.419 5.07534 18.6639 3.32019C16.9087 1.56505 14.7032 0.422806 12.2794 0.0095565C11.9404 -0.0508058 11.62 0.181357 11.5597 0.520314C11.504 0.863914 11.7315 1.1843 12.0751 1.24466C14.2388 1.61148 16.2122 2.63764 17.7816 4.20241C19.3511 5.77183 20.3726 7.74521 20.7394 9.90897C20.7905 10.2154 21.0551 10.429 21.3569 10.429C21.3941 10.429 21.4266 10.4244 21.4637 10.4197C21.8027 10.3686 22.0349 10.0436 21.9745 9.70466Z" fill="#A7A7A7"/>
</g>
<defs>
<clipPath id="clip0">
<rect width="22" height="22" fill="white"/>
</clipPath>
</defs>
</svg>
