<svg width="31" height="35" viewBox="0 0 31 35" fill="none" xmlns="http://www.w3.org/2000/svg">
<path d="M2.74901 11.4126H2.65935C1.51001 11.4126 0.572906 12.3527 0.572906 13.4991V22.5831C0.572906 23.7339 1.51001 24.671 2.65935 24.671H2.75053C3.89987 24.671 4.83697 23.7309 4.83697 22.5831V13.499C4.83545 12.3527 3.89689 11.4126 2.74901 11.4126Z" fill="#A7A7A7"/>
<path d="M5.83533 26.0893C5.83533 27.1445 6.69767 28.0039 7.75285 28.0039H9.80194V32.9106C9.80194 34.0629 10.742 35 11.8884 35H11.978C13.1289 35 14.0675 34.0614 14.0675 32.9106V28.0039H16.9311V32.9106C16.9311 34.0629 17.8742 35 19.0205 35H19.1087C20.2595 35 21.1966 34.0614 21.1966 32.9106V28.0039H23.2472C24.3008 28.0039 25.1632 27.1445 25.1632 26.0893V11.7459H5.83533V26.0893Z" fill="#A7A7A7"/>
<path d="M20.3133 3.04745L21.9409 0.535105C22.0455 0.376645 21.9992 0.159985 21.8393 0.0568165C21.6809 -0.0478069 21.4641 -0.00443323 21.361 0.158461L19.6736 2.75756C18.4077 2.23894 16.9939 1.94752 15.5007 1.94752C14.0061 1.94752 12.5953 2.23894 11.3264 2.75756L9.64203 0.158461C9.53893 -0.00443323 9.32067 -0.0478069 9.16076 0.0568165C9.00084 0.159916 8.95449 0.376645 9.05912 0.535105L10.6882 3.04745C7.75132 4.48675 5.77103 7.19941 5.77103 10.3111C5.77103 10.5024 5.78301 10.6907 5.79943 10.8775H25.2035C25.2199 10.6907 25.2304 10.5024 25.2304 10.3111C25.2304 7.19941 23.2486 4.48675 20.3133 3.04745ZM11.0021 7.54612C10.4864 7.54612 10.0679 7.13061 10.0679 6.61352C10.0679 6.09643 10.4864 5.68237 11.0021 5.68237C11.5207 5.68237 11.9362 6.09636 11.9362 6.61352C11.9362 7.13068 11.5177 7.54612 11.0021 7.54612ZM19.998 7.54612C19.4823 7.54612 19.0638 7.13061 19.0638 6.61352C19.0638 6.09643 19.4823 5.68237 19.998 5.68237C20.515 5.68237 20.9306 6.09636 20.9306 6.61352C20.9306 7.13061 20.515 7.54612 19.998 7.54612Z" fill="#A7A7A7"/>
<path d="M28.3391 11.4126H28.2525C27.1031 11.4126 26.163 12.3527 26.163 13.4991V22.5831C26.163 23.7339 27.1047 24.671 28.2525 24.671H28.3407C29.4914 24.671 30.4271 23.7309 30.4271 22.5831V13.499C30.4271 12.3527 29.4885 11.4126 28.3391 11.4126Z" fill="#A7A7A7"/>
</svg>
