<svg width="50" height="50" viewBox="0 0 50 50" fill="none" xmlns="http://www.w3.org/2000/svg">
<g clip-path="url(#clip0)">
<path d="M15.8226 26.9404C16.2927 26.9404 16.7169 26.657 16.8968 26.2223C17.0771 25.7881 16.9772 25.2875 16.6447 24.9551C12.0685 20.3684 12.0685 12.9424 16.6447 8.35577C17.0989 7.90155 17.0989 7.16527 16.6447 6.71151C16.1905 6.2573 15.4542 6.2573 15 6.71151C9.51717 12.2071 9.51717 21.1038 15 26.5998C15.218 26.8183 15.5142 26.9409 15.8226 26.9404Z" fill="#2e90db"/>
<path d="M33.3021 6.71151C32.8484 7.16573 32.8484 7.90201 33.3021 8.35577C37.8788 12.9429 37.8788 20.3684 33.3021 24.9555C32.8484 25.4093 32.8479 26.1456 33.3021 26.5998C33.7563 27.054 34.4926 27.054 34.9468 26.5998C40.4297 21.1042 40.4297 12.2071 34.9468 6.71151C34.4926 6.2573 33.7563 6.2573 33.3021 6.71151Z" fill="#2e90db"/>
<path d="M10.2743 0.340661C9.82013 -0.113554 9.08385 -0.113554 8.62963 0.340661C-0.396076 9.36728 -0.396076 24.0016 8.62963 33.0283C9.08385 33.4825 9.82013 33.4825 10.2743 33.0283C10.7286 32.574 10.7286 31.8378 10.2743 31.3835C2.15661 23.2654 2.15661 10.1036 10.2743 1.98492C10.7281 1.5307 10.7281 0.794876 10.2743 0.340661Z" fill="#2e90db"/>
<path d="M39.6729 0.340661C39.2192 0.794876 39.2192 1.53116 39.6729 1.98492C47.7907 10.1036 47.7907 23.2653 39.6729 31.384C39.2192 31.8382 39.2187 32.5745 39.6729 33.0282C40.1272 33.4825 40.8634 33.4825 41.3177 33.0287C50.3434 24.0016 50.3434 9.36728 41.3177 0.340661C40.8634 -0.113554 40.1272 -0.113554 39.6729 0.340661Z" fill="#2e90db"/>
<path d="M28.0701 21.5806C30.2512 20.2021 31.2586 17.5476 30.541 15.069C29.8238 12.5903 27.5541 10.8848 24.9737 10.8848C22.3933 10.8848 20.1236 12.5903 19.4059 15.069C18.6887 17.5476 19.6962 20.2021 21.8773 21.5806L12.1235 48.4402C11.994 48.7967 12.0467 49.1942 12.2643 49.5044C12.4819 49.8151 12.8371 50 13.2163 50H36.7306C37.1098 50 37.4655 49.8151 37.6831 49.5044C37.9006 49.1942 37.9533 48.7967 37.8239 48.4402L28.0701 21.5806ZM24.9737 13.214C26.8905 13.214 28.4443 14.7679 28.4443 16.6846C28.4443 18.6014 26.8905 20.1553 24.9737 20.1553C23.0569 20.1553 21.503 18.6014 21.503 16.6846C21.5053 14.7688 23.0578 13.2163 24.9737 13.214ZM24.9737 22.4804C25.2825 22.4804 25.591 22.4554 25.8957 22.4064L30.0046 33.7209H19.9428L24.0516 22.4068C24.3564 22.4559 24.6648 22.4804 24.9737 22.4804ZM14.876 47.6744L19.0984 36.0465H30.8489L35.0713 47.6744H14.876Z" fill="#2e90db"/>
</g>
<defs>
<clipPath id="clip0">
<rect width="50" height="50" fill="white"/>
</clipPath>
</defs>
</svg>
