<svg width="31" height="35" viewBox="0 0 31 35" fill="none" xmlns="http://www.w3.org/2000/svg">
<path d="M26.8265 22.9049C25.8589 21.5168 25.3754 19.9529 25.3754 18.2146C25.3754 16.6301 25.8317 15.1784 26.7424 13.8605C27.2332 13.1454 28.0327 12.3183 29.1405 11.3786C28.4114 10.4815 27.6823 9.78036 26.9527 9.27542C25.6346 8.36411 24.1411 7.90846 22.4726 7.90846C21.4772 7.90846 20.264 8.14671 18.8341 8.6238C17.4598 9.10053 16.4571 9.33914 15.8264 9.33914C15.3494 9.33914 14.382 9.12896 12.9237 8.70808C11.4514 8.28735 10.2104 8.07717 9.20079 8.07717C6.78896 8.07717 4.79779 9.0869 3.22736 11.1059C1.64285 13.1532 0.850451 15.7753 0.850451 18.9725C0.850451 22.3659 1.88132 25.8922 3.94248 29.5521C6.03163 33.1838 8.14207 34.9999 10.2734 34.9999C10.9886 34.9999 11.9141 34.7615 13.0497 34.2847C14.1857 33.8224 15.1812 33.5907 16.0367 33.5907C16.9478 33.5907 18.0067 33.815 19.2125 34.2635C20.4884 34.7118 21.4702 34.9362 22.1572 34.9362C23.952 34.9362 25.7541 33.5619 27.5627 30.8137C28.7404 29.061 29.6028 27.3083 30.1497 25.5554C28.9017 25.1765 27.7941 24.2931 26.8265 22.9049Z" fill="#A7A7A7"/>
<path d="M19.6748 6.64648C20.5584 5.7631 21.2104 4.79544 21.6312 3.74394C22.0377 2.69229 22.2406 1.73863 22.2406 0.883163C22.2406 0.827247 22.2375 0.757039 22.23 0.672833C22.2236 0.588701 22.2199 0.518788 22.2199 0.462651C22.2057 0.420512 22.1883 0.343378 22.1674 0.231326C22.1465 0.119273 22.129 0.0421396 22.1147 0C19.6468 0.57522 17.8941 1.6128 16.8563 3.11324C15.805 4.62769 15.2578 6.42938 15.2157 8.51867C16.1552 8.43447 16.884 8.31549 17.4031 8.16115C18.1609 7.90868 18.9172 7.40367 19.6748 6.64648Z" fill="#A7A7A7"/>
</svg>
