<svg width="16" height="12" viewBox="0 0 16 12" fill="none" xmlns="http://www.w3.org/2000/svg">
<path fill-rule="evenodd" clip-rule="evenodd" d="M0.99975 7.00024L12.5857 7.00024L9.29275 10.2932C8.90175 10.6842 8.90175 11.3162 9.29275 11.7072C9.68375 12.0982 10.3158 12.0982 10.7067 11.7072L15.7067 6.70724C16.0977 6.31624 16.0977 5.68424 15.7067 5.29324L10.7067 0.293239C10.5117 0.0982394 10.2557 0.000238921 9.99975 0.000238943C9.74375 0.000238966 9.48775 0.0982395 9.29275 0.293239C8.90175 0.684239 8.90175 1.31624 9.29275 1.70724L12.5857 5.00024L0.99975 5.00024C0.44675 5.00024 -0.000250435 5.44824 -0.000250387 6.00024C-0.000250339 6.55224 0.44675 7.00024 0.99975 7.00024Z" fill="#2E90DB"/>
</svg>
