<svg width="377" height="267" viewBox="0 0 377 267" fill="none" xmlns="http://www.w3.org/2000/svg">
<path d="M242.921 208.688V256.016H233.513C230.153 256.016 227.465 253.328 227.465 249.968V214.736C227.465 211.376 230.153 208.688 233.513 208.688H242.921Z" fill="#E0E0E0"/>
<path d="M242.921 204.272C242.921 202.256 244.745 200.624 246.761 200.912C262.121 202.832 274.121 215.984 274.121 231.824C274.121 247.76 262.217 260.912 246.761 262.736C244.745 263.024 242.921 261.392 242.921 259.376V256.208V208.88V204.272Z" fill="#E0E0E0"/>
<path d="M186.089 203.504V259.952C186.089 261.584 184.649 262.928 182.921 262.736C167.177 261.2 154.889 247.856 154.889 231.728C154.889 215.6 167.177 202.256 182.921 200.72C184.553 200.624 186.089 201.872 186.089 203.504Z" fill="#E0E0E0"/>
<path d="M201.449 9.96799C238.121 9.96799 267.881 39.824 267.881 76.496C267.881 77.264 267.881 77.936 267.881 78.704C267.881 78.8 267.881 78.896 267.881 78.992C267.881 79.568 267.881 80.048 267.785 80.528C267.785 80.816 267.785 81.008 267.785 81.296C267.785 81.68 267.689 82.064 267.689 82.448C267.689 82.736 267.689 83.024 267.593 83.312C267.497 84.08 267.401 84.944 267.305 85.712C267.209 86.192 267.209 86.576 267.113 87.056C267.113 87.344 267.017 87.536 267.017 87.824C266.921 88.304 266.825 88.784 266.729 89.264C266.537 90.128 266.345 91.088 266.153 91.952C266.057 92.528 265.865 93.2 265.673 93.776C265.481 94.352 265.385 94.928 265.193 95.504C265.001 96.272 264.713 97.04 264.425 97.808C264.329 98.096 264.233 98.384 264.137 98.576C264.041 98.96 263.849 99.344 263.753 99.728C263.753 99.824 263.657 99.92 263.657 100.016C263.465 100.592 263.177 101.264 262.985 101.84C262.793 102.416 262.505 102.896 262.313 103.472C261.929 104.336 261.545 105.104 261.161 105.872C260.873 106.448 260.585 107.024 260.297 107.504C260.009 108.08 259.625 108.752 259.241 109.328C258.473 110.576 257.801 111.824 256.937 113.072C256.553 113.648 256.265 114.128 255.881 114.608C255.497 115.184 255.113 115.664 254.729 116.144C254.729 116.24 254.633 116.24 254.633 116.24C254.249 116.816 253.769 117.296 253.385 117.872C253.001 118.448 252.521 118.928 252.041 119.504C251.561 119.984 251.177 120.56 250.697 121.04C250.217 121.52 249.737 122 249.257 122.576C248.297 123.536 247.337 124.496 246.281 125.456L246.185 125.552C245.705 126.032 245.225 126.416 244.745 126.896C243.689 127.76 242.633 128.72 241.481 129.488C240.329 130.352 239.273 131.12 238.121 131.888C237.545 132.272 236.969 132.656 236.393 133.04C226.313 139.28 214.313 142.928 201.641 142.928C188.969 142.928 176.969 139.28 166.889 133.04C166.313 132.656 165.737 132.272 165.161 131.888C164.009 131.12 162.857 130.352 161.705 129.488C160.553 128.624 159.497 127.76 158.441 126.896C157.961 126.512 157.481 126.032 157.001 125.552L156.905 125.456C155.849 124.496 154.889 123.536 153.929 122.576C153.449 122.096 152.969 121.616 152.489 121.04C152.009 120.56 151.625 119.984 151.145 119.504C150.665 118.928 150.281 118.448 149.801 117.872C149.321 117.296 148.937 116.816 148.553 116.24L148.457 116.144C148.073 115.664 147.689 115.088 147.305 114.608C146.921 114.128 146.537 113.552 146.249 113.072C145.481 111.824 144.713 110.576 143.945 109.328C143.561 108.752 143.273 108.08 142.889 107.504C142.601 106.928 142.313 106.448 142.025 105.872C141.641 105.104 141.257 104.24 140.873 103.472C140.585 102.896 140.393 102.416 140.201 101.84C139.913 101.264 139.721 100.688 139.529 100.016C139.529 99.92 139.433 99.824 139.433 99.728C139.337 99.344 139.145 98.96 139.049 98.576C138.953 98.288 138.857 98 138.761 97.808C138.473 97.04 138.281 96.272 137.993 95.504C137.801 94.928 137.609 94.352 137.513 93.776C137.321 93.2 137.225 92.528 137.033 91.952C136.841 91.088 136.649 90.128 136.457 89.264C136.361 88.784 136.265 88.304 136.169 87.824C136.169 87.536 136.073 87.344 136.073 87.056C135.977 86.576 135.977 86.192 135.881 85.712C135.785 84.944 135.689 84.08 135.593 83.312C135.593 83.024 135.497 82.736 135.497 82.448C135.497 82.064 135.401 81.68 135.401 81.296C135.401 81.008 135.401 80.816 135.305 80.528C135.305 80.048 135.209 79.472 135.209 78.992C135.209 78.896 135.209 78.8 135.209 78.704C135.209 77.936 135.209 77.264 135.209 76.496C135.017 39.728 164.777 9.96799 201.449 9.96799ZM236.297 76.4C236.297 57.2 220.649 41.552 201.545 41.552C182.441 41.552 166.697 57.2 166.697 76.4C166.697 95.6 182.345 111.248 201.545 111.248C220.745 111.248 236.297 95.6 236.297 76.4Z" fill="#E0E0E0"/>
<path d="M350.249 89.072C350.057 88.4 349.385 87.824 348.617 87.824C339.497 87.824 297.353 87.824 291.977 87.824C291.401 87.824 290.825 87.728 290.345 87.44C289.097 86.768 288.617 85.424 288.905 84.08L304.553 12.56C304.841 11.12 306.089 10.16 307.529 10.16H330.185C331.529 10.16 332.681 10.928 333.161 12.272C333.353 12.752 333.353 13.328 333.257 13.904C332.297 18.608 325.289 52.688 323.465 61.424C323.273 62.48 324.041 63.536 325.193 63.536H348.809C349.769 63.536 350.537 62.768 350.537 61.808L350.441 40.208C350.441 39.344 350.729 38.576 351.305 38C351.881 37.424 352.649 37.136 353.513 37.136H373.385C375.113 37.136 376.457 38.48 376.457 40.208V146.384C376.457 148.304 374.921 149.84 373.001 149.84H353.705C351.785 149.84 350.249 148.304 350.249 146.384V122.768C350.345 122.288 350.345 121.808 350.345 121.328V89.456C350.345 89.36 350.249 89.168 350.249 89.072Z" fill="#E0E0E0"/>
<path d="M102.953 118.64V146.48C102.953 148.4 101.417 149.936 99.4974 149.936H78.3774C76.4574 149.936 74.9214 148.4 74.9214 146.48V133.136V89.6484C74.9214 88.6884 74.1534 87.9204 73.1934 87.9204H16.5534C15.9774 87.9204 15.4014 87.8244 14.9214 87.5364C13.6734 86.8644 13.1934 85.5204 13.4814 84.1764L29.1294 12.5604C29.4174 11.1204 30.6654 10.1604 32.1054 10.1604H54.7614C56.1054 10.1604 57.2574 10.9284 57.7374 12.2724C57.9294 12.7524 57.9294 13.3284 57.8334 13.9044C56.8734 18.6084 49.8654 52.6884 48.0414 61.4244C47.8494 62.4804 48.6174 63.5364 49.7694 63.5364H73.3854C74.3454 63.5364 75.1134 62.7684 75.1134 61.8084L75.0174 40.2084C75.0174 39.3444 75.3054 38.5764 75.8814 38.0004C76.4574 37.4244 77.2254 37.1364 78.0894 37.1364H99.8814C101.609 37.1364 102.953 38.4804 102.953 40.2084V71.5044V118.64Z" fill="#E0E0E0"/>
<path d="M199.049 9.19998C231.881 9.19998 258.569 35.888 258.569 68.72C258.569 69.392 258.569 70.064 258.569 70.64C258.569 70.736 258.569 70.832 258.569 70.832C258.569 71.312 258.569 71.792 258.473 72.272C258.473 72.464 258.473 72.752 258.473 72.944C258.473 73.328 258.377 73.616 258.377 74C258.377 74.288 258.377 74.48 258.281 74.768C258.185 75.536 258.089 76.208 257.993 76.88C257.897 77.264 257.897 77.648 257.801 78.128C257.801 78.32 257.705 78.608 257.705 78.8C257.609 79.184 257.513 79.664 257.417 80.048C257.225 80.912 257.129 81.68 256.937 82.448C256.841 83.024 256.649 83.6 256.553 84.08C256.457 84.56 256.265 85.136 256.073 85.616C255.881 86.288 255.689 86.96 255.401 87.632C255.305 87.92 255.209 88.112 255.113 88.4C255.017 88.784 254.825 89.072 254.729 89.456C254.729 89.552 254.633 89.648 254.633 89.744C254.441 90.32 254.249 90.8 253.961 91.376C253.769 91.856 253.577 92.336 253.289 92.816C253.001 93.584 252.617 94.256 252.233 95.024C251.945 95.504 251.753 95.984 251.465 96.464C251.177 97.04 250.889 97.52 250.601 98.096C249.929 99.248 249.257 100.304 248.585 101.456C248.297 101.936 247.913 102.416 247.625 102.896C247.337 103.376 246.953 103.856 246.569 104.336L246.473 104.432C246.089 104.912 245.705 105.392 245.321 105.872C244.937 106.352 244.553 106.832 244.169 107.312C243.785 107.792 243.401 108.272 242.921 108.656C242.537 109.136 242.057 109.52 241.673 110C240.809 110.864 239.945 111.728 238.985 112.592C238.985 112.592 238.985 112.592 238.889 112.688C238.409 113.072 238.025 113.456 237.545 113.84C236.585 114.608 235.625 115.472 234.665 116.144C233.705 116.912 232.649 117.584 231.593 118.256C231.113 118.64 230.537 118.928 230.057 119.216C221.033 124.784 210.377 128.048 198.953 128.048C187.529 128.048 176.873 124.784 167.849 119.216C167.273 118.928 166.793 118.544 166.313 118.256C165.257 117.584 164.297 116.816 163.241 116.144C162.281 115.376 161.321 114.608 160.361 113.84C159.881 113.456 159.497 113.072 159.017 112.688L158.921 112.592C157.961 111.728 157.097 110.864 156.233 110C155.849 109.52 155.369 109.136 154.985 108.656C154.601 108.176 154.121 107.696 153.737 107.312C153.353 106.832 152.969 106.352 152.585 105.872C152.201 105.392 151.817 104.912 151.433 104.432L151.337 104.336C150.953 103.856 150.665 103.376 150.281 102.896C149.993 102.416 149.609 101.936 149.321 101.456C148.553 100.4 147.881 99.248 147.305 98.096C147.017 97.52 146.729 97.04 146.441 96.464C146.153 95.984 145.961 95.504 145.673 95.024C145.289 94.256 145.001 93.584 144.617 92.816C144.425 92.336 144.233 91.856 143.945 91.376C143.753 90.8 143.561 90.32 143.273 89.744C143.273 89.648 143.177 89.552 143.177 89.456C143.081 89.168 142.889 88.784 142.793 88.4C142.697 88.112 142.601 87.92 142.505 87.632C142.313 86.96 142.025 86.288 141.833 85.616C141.641 85.136 141.545 84.56 141.353 84.08C141.161 83.504 141.065 83.024 140.969 82.448C140.777 81.68 140.585 80.816 140.489 80.048C140.393 79.664 140.297 79.184 140.201 78.8C140.201 78.608 140.105 78.32 140.105 78.128C140.009 77.744 140.009 77.36 139.913 76.88C139.817 76.208 139.721 75.44 139.625 74.768C139.625 74.48 139.529 74.288 139.529 74C139.529 73.616 139.433 73.328 139.433 72.944C139.433 72.752 139.433 72.464 139.433 72.272C139.433 71.792 139.337 71.312 139.337 70.832C139.337 70.736 139.337 70.64 139.337 70.64C139.337 69.968 139.337 69.392 139.337 68.72C139.529 35.888 166.217 9.19998 199.049 9.19998ZM230.153 68.72C230.153 51.536 216.137 37.616 199.049 37.616C181.865 37.616 167.945 51.632 167.945 68.72C167.945 85.904 181.961 99.824 199.049 99.824C216.233 99.92 230.153 85.904 230.153 68.72Z" stroke="#F9F7F4" stroke-width="4" stroke-miterlimit="10" stroke-linecap="round"/>
<path d="M35.3694 1.99998L19.7214 73.616C19.4334 74.864 20.0094 76.208 21.1614 76.976C21.6414 77.264 22.2174 77.36 22.7934 77.36C28.1694 77.36 78.9534 77.36 78.9534 77.36C79.9134 77.36 80.6814 78.128 80.6814 79.088V122.576" stroke="#F9F7F4" stroke-width="4" stroke-miterlimit="10" stroke-linecap="round"/>
<path d="M311.369 1.99998L295.721 73.616C295.433 74.864 296.009 76.208 297.161 76.976C297.641 77.264 298.217 77.36 298.793 77.36C304.169 77.36 354.953 77.36 354.953 77.36C355.913 77.36 356.681 78.128 356.681 79.088V122.576" stroke="#F9F7F4" stroke-width="4" stroke-miterlimit="10" stroke-linecap="round"/>
<path d="M176.681 200.625C159.497 200.625 145.481 214.641 145.481 231.825C145.481 249.009 159.497 263.025 176.681 263.025" stroke="#2E90DB" stroke-width="7" stroke-miterlimit="10" stroke-linecap="round" stroke-linejoin="round"/>
<path d="M176.585 200.24V262.64" stroke="#2E90DB" stroke-width="7" stroke-miterlimit="10" stroke-linecap="round" stroke-linejoin="round"/>
<path d="M178.505 211.76H197.705" stroke="#2E90DB" stroke-width="7" stroke-miterlimit="10" stroke-linecap="round" stroke-linejoin="round"/>
<path d="M178.505 249.2H197.705" stroke="#2E90DB" stroke-width="7" stroke-miterlimit="10" stroke-linecap="round" stroke-linejoin="round"/>
<path d="M192.041 111.248C172.841 111.248 157.193 95.6 157.193 76.4C157.193 57.2 172.841 41.552 192.041 41.552C211.241 41.552 226.889 57.2 226.889 76.4C226.889 95.6 211.241 111.248 192.041 111.248Z" stroke="#2E90DB" stroke-width="7" stroke-miterlimit="10" stroke-linecap="round" stroke-linejoin="round"/>
<path d="M182.825 67.28L203.945 88.304" stroke="#2E90DB" stroke-width="7" stroke-miterlimit="10" stroke-linecap="round" stroke-linejoin="round"/>
<path d="M182.825 88.304L203.945 67.28" stroke="#2E90DB" stroke-width="7" stroke-miterlimit="10" stroke-linecap="round" stroke-linejoin="round"/>
<path d="M65.6094 208.88C65.6094 221.552 75.8814 231.92 88.6494 231.92H145.961" stroke="#2E90DB" stroke-width="7" stroke-miterlimit="10" stroke-linecap="round" stroke-linejoin="round"/>
<path d="M65.6094 152.048V185.36" stroke="#2E90DB" stroke-width="7" stroke-miterlimit="10" stroke-linecap="round" stroke-linejoin="round"/>
<path d="M8.20139 65.168L4.07339 84.176C3.78539 85.424 4.36139 86.768 5.51339 87.536C5.99339 87.824 6.56939 87.92 7.14539 87.92C12.5214 87.92 63.7854 87.92 63.7854 87.92C64.7454 87.92 65.5134 88.688 65.5134 89.648V135.344" stroke="#2E90DB" stroke-width="7" stroke-miterlimit="10" stroke-linecap="round" stroke-linejoin="round"/>
<path d="M157.769 133.04H129.065H116.009H107.849C99.8814 133.04 93.4494 126.608 93.4494 118.64V40.112C93.4494 38.384 92.1054 37.04 90.3774 37.04H68.6814C67.9134 37.04 67.0494 37.328 66.4734 37.904C65.8974 38.48 65.6094 39.248 65.6094 40.112L65.7054 62.192C65.7054 63.152 64.9374 63.92 63.9774 63.92H40.1694C39.1134 63.92 38.2494 62.96 38.4414 61.808C40.2654 52.976 47.2734 18.704 48.2334 13.904C48.3294 13.328 48.3294 12.752 48.1374 12.272C47.6574 10.928 46.5054 10.16 45.1614 10.16H22.7934C21.3534 10.16 20.1054 11.12 19.8174 12.56" stroke="#2E90DB" stroke-width="7" stroke-miterlimit="10" stroke-linecap="round" stroke-linejoin="round"/>
<path d="M127.817 93.68C132.329 110.192 142.985 124.208 157.289 133.04" stroke="#2E90DB" stroke-width="7" stroke-miterlimit="10" stroke-linecap="round" stroke-linejoin="round"/>
<path d="M173.033 12.752C145.673 21.008 125.609 46.448 125.609 76.496" stroke="#2E90DB" stroke-width="7" stroke-miterlimit="10" stroke-linecap="round" stroke-linejoin="round"/>
<path d="M226.793 133.04C245.801 121.328 258.473 100.304 258.473 76.4C258.473 39.728 228.617 9.10399 191.945 9.87199" stroke="#2E90DB" stroke-width="7" stroke-miterlimit="10" stroke-linecap="round" stroke-linejoin="round"/>
<path d="M287.081 133.04H248.105" stroke="#2E90DB" stroke-width="7" stroke-miterlimit="10" stroke-linecap="round" stroke-linejoin="round"/>
<path d="M286.121 53.456L279.401 84.272C279.113 85.52 279.689 86.864 280.841 87.632C281.321 87.92 281.897 88.016 282.473 88.016C287.849 88.016 339.689 88.016 339.689 88.016C340.169 88.016 340.553 88.4 340.553 88.88V127.28C340.553 130.544 337.961 133.136 334.697 133.136H306.761" stroke="#2E90DB" stroke-width="7" stroke-miterlimit="10" stroke-linecap="round" stroke-linejoin="round"/>
<path d="M366.569 96.08V40.112C366.569 38.384 365.225 37.04 363.497 37.04H343.721C342.953 37.04 342.089 37.328 341.513 37.904C340.937 38.48 340.649 39.248 340.649 40.112L340.745 62.192C340.745 63.152 339.977 63.92 339.017 63.92H315.209C314.153 63.92 313.289 62.96 313.481 61.808C315.305 52.976 322.313 18.704 323.273 13.904C323.369 13.328 323.369 12.752 323.177 12.272C322.697 10.928 321.545 10.16 320.201 10.16H297.929C296.489 10.16 295.241 11.12 294.953 12.56L290.729 31.76" stroke="#2E90DB" stroke-width="7" stroke-miterlimit="10" stroke-linecap="round" stroke-linejoin="round"/>
<path d="M366.569 143.408V125.456" stroke="#2E90DB" stroke-width="7" stroke-miterlimit="10" stroke-linecap="round" stroke-linejoin="round"/>
<path d="M346.217 231.92C358.889 231.92 367.337 221.648 367.337 208.88V171.92" stroke="#2E90DB" stroke-width="7" stroke-miterlimit="10" stroke-linecap="round" stroke-linejoin="round"/>
<path d="M266.441 231.92H323.465" stroke="#2E90DB" stroke-width="7" stroke-miterlimit="10" stroke-linecap="round" stroke-linejoin="round"/>
<path d="M233.513 200.625C250.697 200.625 264.713 214.641 264.713 231.825C264.713 249.009 250.697 263.025 233.513 263.025" stroke="#2E90DB" stroke-width="7" stroke-miterlimit="10" stroke-linecap="round" stroke-linejoin="round"/>
<path d="M233.802 200.24V262.64" stroke="#2E90DB" stroke-width="7" stroke-miterlimit="10" stroke-linecap="round" stroke-linejoin="round"/>
<path d="M233.801 208.88H218.441V255.92H233.801V208.88Z" stroke="#2E90DB" stroke-width="7" stroke-miterlimit="10" stroke-linecap="round" stroke-linejoin="round"/>
</svg>
