<svg width="50" height="50" viewBox="0 0 50 50" fill="none" xmlns="http://www.w3.org/2000/svg">
<path d="M48.964 27.5943L44.4333 18.677C44.0254 17.8742 43.2456 17.3757 42.3983 17.3757C40.8705 17.3757 9.12686 17.3757 7.60186 17.3757C6.7544 17.3757 5.97471 17.8742 5.5668 18.677L1.03614 27.5943C0.796587 28.0658 0.819048 28.6381 1.09483 29.0874C1.35049 29.5041 1.78467 29.7527 2.25616 29.7527H5.94512V47.6908C5.94512 48.964 6.90421 49.9999 8.08321 49.9999C8.5669 49.9999 41.4336 49.9999 41.9173 49.9999C43.0962 49.9999 44.0554 48.9641 44.0554 47.6908V39.9902C44.0554 39.5856 43.7276 39.2577 43.3229 39.2577C42.9182 39.2577 42.5903 39.5855 42.5903 39.9902V47.6909C42.5903 48.1484 42.2821 48.535 41.9172 48.535H25.7326V21.1669L29.5529 28.6858C29.8872 29.344 30.5292 29.7529 31.2281 29.7529H42.5902V36.5722C42.5902 36.9767 42.918 37.3047 43.3227 37.3047C43.7274 37.3047 44.0552 36.9768 44.0552 36.5722V29.7529H47.7442C48.2156 29.7529 48.6497 29.5042 48.9055 29.0876C49.1811 28.638 49.2036 28.0659 48.964 27.5943ZM2.33516 28.288C2.33516 28.2787 2.33702 28.2683 2.34219 28.258L6.87286 19.3407C7.0295 19.0323 7.30889 18.8407 7.60196 18.8407H23.8064C23.2465 19.9428 19.897 26.5349 19.1413 28.0224V28.0224C19.058 28.1862 18.9166 28.288 18.7722 28.288C18.3589 28.288 2.78126 28.288 2.33516 28.288ZM24.2676 48.5349H8.08311C7.71827 48.535 7.41007 48.1485 7.41007 47.6909V29.7528H18.7721C19.4735 29.7528 20.1142 29.3417 20.4473 28.6858L24.2676 21.1668V48.5349ZM31.2281 28.2879C31.0837 28.2879 30.9422 28.1861 30.859 28.0223L26.194 18.8406H42.3984C42.6913 18.8406 42.9706 19.0322 43.1275 19.3406L47.6581 28.2579C47.6634 28.2682 47.6652 28.2786 47.6652 28.2879C47.2183 28.2879 31.6415 28.2879 31.2281 28.2879Z" fill="#383838"/>
<path d="M24.9998 2.27744C23.3672 -0.341994 19.7036 -0.784376 17.4976 1.4248C16.5862 2.3374 16.0851 3.54883 16.0863 4.83603C16.09 8.55556 18.5805 12.1562 22.9189 14.7147C23.0357 14.7837 23.1639 14.8164 23.2903 14.8164C23.541 14.8164 23.7852 14.6876 23.9219 14.456C24.1273 14.1076 24.0115 13.6584 23.6631 13.4529C21.827 12.37 17.5559 9.3626 17.5511 4.83457C17.5491 2.81719 19.3263 1.23125 21.3558 1.50449C23.1696 1.74892 23.7977 3.17412 23.9373 3.31963C24.5842 3.99453 25.467 3.99687 26.0757 3.29941C26.2383 3.11142 27.0235 1.4666 29.0901 1.46445C30.9401 1.46445 32.4471 2.96943 32.4491 4.81933C32.4535 9.13047 28.6184 12.0775 26.3321 13.4506C25.9853 13.6589 25.873 14.1088 26.0813 14.4557C26.2897 14.8025 26.7395 14.9145 27.0864 14.7064C31.4931 12.0601 33.918 8.54814 33.9141 4.81777C33.9089 0.102537 27.712 -1.90459 24.9998 2.27744Z" fill="#383838"/>
</svg>
