<svg width="50" height="50" viewBox="0 0 50 50" fill="none" xmlns="http://www.w3.org/2000/svg">
<path d="M26.2365 23.7649C25.8547 23.3831 25.2365 23.3831 24.8547 23.7649C24.4738 24.1458 24.4738 24.7639 24.8547 25.1458C25.2365 25.5266 25.8547 25.5266 26.2365 25.1458C26.6174 24.7639 26.6174 24.1458 26.2365 23.7649Z" fill="#383838"/>
<path d="M38.6654 11.3349C36.7572 9.42682 33.6681 9.42672 31.7598 11.3349C29.8566 13.2382 29.8565 16.3358 31.7601 18.2406C33.664 20.1434 36.7617 20.1442 38.6654 18.2404C40.5734 16.3324 40.5738 13.2432 38.6654 11.3349ZM37.2843 16.8593C36.1424 18.0013 34.2836 18.0013 33.1411 16.8595C31.999 15.7167 31.999 13.8579 33.1409 12.716C34.2858 11.5712 36.1393 11.571 37.2843 12.716C38.4292 13.8607 38.4293 15.7144 37.2843 16.8593Z" fill="#383838"/>
<path d="M49.714 0.286046C49.5222 0.094346 49.2605 -0.00956079 48.9884 0.000693168C48.7676 0.00860337 43.5103 0.219933 37.2607 2.42883C32.2529 4.197 28.0787 6.72856 24.8542 9.95319C24.1316 10.6758 23.4285 11.442 22.7558 12.238C19.5675 10.3612 17.0126 10.9497 15.3974 11.814C11.6785 13.8043 9.37668 19.2082 9.37668 23.0735C9.37697 23.4684 9.61496 23.8246 9.97981 23.9756C10.1006 24.0257 10.2276 24.05 10.3533 24.05C10.6075 24.05 10.8573 23.9507 11.0441 23.764C13.0053 21.8028 15.4244 21.9254 16.2146 22.0293L16.5566 22.3713C15.8835 23.9729 15.3414 25.5655 14.9437 27.1144C14.8001 27.675 14.8486 28.2681 15.062 28.8107C14.1217 29.244 13.2146 29.8802 12.4247 30.6701C9.91096 33.184 9.40051 39.3104 9.38 39.57C9.35754 39.8548 9.46086 40.1353 9.66291 40.3373C9.8468 40.5211 10.0955 40.6234 10.3533 40.6234C10.3789 40.6234 10.4046 40.6224 10.4303 40.6203C10.6899 40.5999 16.8165 40.0895 19.3302 37.5757C20.1198 36.7861 20.7559 35.8791 21.1892 34.9391C21.7637 35.1649 22.3549 35.1928 22.8865 35.0565C24.4348 34.659 26.0272 34.117 27.6289 33.4438L27.9709 33.7858C28.0747 34.5762 28.1974 36.9952 26.2362 38.9563C25.957 39.2356 25.8734 39.6556 26.0246 40.0204C26.1757 40.3854 26.5318 40.6233 26.9268 40.6233C30.792 40.6233 36.1959 38.3214 38.1861 34.6025C39.0505 32.9876 39.6389 30.4327 37.7622 27.2443C38.5578 26.5718 39.3241 25.8687 40.047 25.1458C43.2716 21.9212 45.803 17.7471 47.5712 12.7396C49.7802 6.48979 49.9914 1.23234 49.9994 1.01164C50.0091 0.740639 49.9057 0.477844 49.714 0.286046ZM11.5601 20.973C12.1667 18.0371 13.9288 14.8155 16.3194 13.536C17.917 12.6811 19.6632 12.7649 21.5198 13.7812C19.9381 15.8615 18.563 18.1027 17.4168 20.4695C17.4022 20.4605 17.2264 20.2395 16.8999 20.1658C16.7656 20.1355 14.1817 19.5797 11.5601 20.973ZM17.9492 36.1945C16.6064 37.5373 13.4565 38.2455 11.4656 38.5347C11.7548 36.5437 12.4631 33.3938 13.8058 32.0512C14.5578 31.2992 15.4296 30.7291 16.306 30.408L19.5924 33.6943C19.2713 34.5707 18.7012 35.4426 17.9492 36.1945ZM22.4014 33.1645C22.1187 33.2369 21.7914 33.1307 21.548 32.8877C20.2846 31.6243 19.7904 31.1301 19.6353 30.9751C19.351 30.6907 18.6536 29.9933 17.1132 28.4529C16.8697 28.2089 16.7634 27.8816 16.8356 27.5995C17.1484 26.3813 17.5575 25.1315 18.0549 23.8697L26.1307 31.9454C24.8687 32.443 23.619 32.8519 22.4014 33.1645ZM36.4643 33.681C35.1848 36.0715 31.9633 37.8336 29.0276 38.4402C29.9636 36.6787 30.17 34.4364 29.828 33.0768C29.7486 32.7609 29.5425 32.6021 29.531 32.5835C31.8975 31.4373 34.1386 30.0622 36.2191 28.4804C37.2354 30.3373 37.3191 32.0837 36.4643 33.681ZM38.6661 23.7648C37.7861 24.6447 36.8385 25.4948 35.8497 26.2914C33.4725 28.2054 30.8561 29.8267 28.0647 31.1174L18.883 21.9359C20.1736 19.1443 21.7949 16.5278 23.7088 14.151C24.5061 13.1614 25.3561 12.2137 26.2357 11.3343C29.1287 8.44107 32.8625 6.13852 37.3364 4.48109L45.5193 12.6639C43.862 17.1377 41.5595 20.8715 38.6661 23.7648ZM46.2219 10.6043L39.3961 3.77845C43.1149 2.62336 46.3502 2.19084 47.9651 2.03537C47.8095 3.65052 47.3769 6.88579 46.2219 10.6043Z" fill="#383838"/>
<path d="M23.4737 40.3369C23.0922 39.9556 22.4738 39.9558 22.0926 40.3371L19.3308 43.0998C18.9496 43.4813 18.9497 44.0997 19.331 44.4809C19.7126 44.8622 20.3309 44.8622 20.7122 44.4807L23.4739 41.718C23.8552 41.3366 23.8551 40.7182 23.4737 40.3369Z" fill="#383838"/>
<path d="M9.66342 26.5266C9.28217 26.1451 8.66391 26.1451 8.28236 26.5264L5.51965 29.2881C5.1382 29.6694 5.1381 30.2877 5.51936 30.6692C5.90051 31.0504 6.51878 31.0508 6.90042 30.6694L9.66313 27.9076C10.0446 27.5264 10.0447 26.908 9.66342 26.5266Z" fill="#383838"/>
<path d="M16.5686 41.719C16.1875 41.3377 15.569 41.3377 15.1876 41.7189L8.57229 48.3332C8.19084 48.7146 8.19084 49.3329 8.57219 49.7143C8.95335 50.0956 9.57181 50.0958 9.95326 49.7144L16.5685 43.1001C16.95 42.7187 16.95 42.1004 16.5686 41.719Z" fill="#383838"/>
<path d="M8.75606 41.719C8.37481 41.3377 7.75635 41.3377 7.375 41.7189L0.759731 48.3332C0.378283 48.7146 0.378283 49.3329 0.759633 49.7143C1.14079 50.0956 1.75925 50.0958 2.1407 49.7144L8.75597 43.1001C9.13741 42.7187 9.13741 42.1004 8.75606 41.719Z" fill="#383838"/>
<path d="M8.28136 33.4316C7.90011 33.0503 7.28165 33.0503 6.9003 33.4317L0.286 40.0469C-0.0953496 40.4284 -0.0953496 41.0466 0.286098 41.4281C0.667448 41.8094 1.28581 41.8094 1.66716 41.428L8.28146 34.8127C8.6628 34.4313 8.6628 33.813 8.28136 33.4316Z" fill="#383838"/>
<path d="M30.3792 19.6211C29.9978 19.2397 29.3796 19.2397 28.9981 19.6211L27.6172 21.002C27.2359 21.3833 27.2359 22.0017 27.6172 22.3831C27.9987 22.7645 28.6169 22.7645 28.9984 22.3831L30.3792 21.0023C30.7606 20.6209 30.7606 20.0025 30.3792 19.6211Z" fill="#383838"/>
</svg>
