<svg width="50" height="50" viewBox="0 0 50 50" fill="none" xmlns="http://www.w3.org/2000/svg">
<path d="M22.181 0C21.6416 0 21.2044 0.437207 21.2044 0.976562V6.99873C21.2044 7.53799 21.6416 7.97529 22.181 7.97529C22.7203 7.97529 23.1575 7.53809 23.1575 6.99873V0.976562C23.1575 0.437207 22.7203 0 22.181 0Z" fill="#383838"/>
<path d="M34.9973 12.819H28.9751C28.4357 12.819 27.9985 13.2562 27.9985 13.7955C27.9985 14.3349 28.4357 14.7721 28.9751 14.7721H34.9973C35.5366 14.7721 35.9738 14.3349 35.9738 13.7955C35.9738 13.2562 35.5366 12.819 34.9973 12.819Z" fill="#383838"/>
<path d="M15.3841 12.8163H9.362C8.82264 12.8163 8.38544 13.2535 8.38544 13.7928C8.38544 14.3322 8.82264 14.7694 9.362 14.7694H15.3842C15.9234 14.7694 16.3606 14.3322 16.3606 13.7928C16.3606 13.2535 15.9234 12.8163 15.3841 12.8163Z" fill="#383838"/>
<path d="M17.3498 7.58142L14.5066 4.73816C14.1252 4.35681 13.5069 4.35681 13.1254 4.73816C12.7441 5.11951 12.7441 5.73786 13.1254 6.11931L15.9688 8.96257C16.1595 9.15329 16.4094 9.2486 16.6593 9.2486C16.9092 9.2486 17.1592 9.15329 17.3498 8.96257C17.7312 8.58122 17.7312 7.96286 17.3498 7.58142Z" fill="#383838"/>
<path d="M31.2357 4.73987C30.8543 4.35852 30.2359 4.35852 29.8545 4.73987L27.0112 7.58313C26.6299 7.96448 26.6299 8.58283 27.0112 8.96428C27.202 9.155 27.452 9.25031 27.7019 9.25031C27.9518 9.25031 28.2018 9.155 28.3924 8.96428L31.2357 6.12102C31.617 5.73967 31.617 5.12131 31.2357 4.73987Z" fill="#383838"/>
<path d="M38.0013 22.2368C37.342 22.2368 36.724 22.4152 36.1913 22.7248C35.7474 21.2319 34.3631 20.1396 32.7278 20.1396C31.6885 20.1396 30.751 20.5813 30.0911 21.2861C29.4314 20.5813 28.4937 20.1396 27.4544 20.1396C26.8561 20.1396 26.2918 20.2866 25.7943 20.5451V13.7941C25.7943 11.8017 24.1734 10.1808 22.181 10.1808C20.1886 10.1808 18.5677 11.8017 18.5677 13.7941V18.9432C18.5677 19.4825 19.0049 19.9198 19.5443 19.9198C20.0836 19.9198 20.5208 19.4825 20.5208 18.9432V13.7941C20.5208 12.8786 21.2655 12.1339 22.181 12.1339C23.0964 12.1339 23.8411 12.8786 23.8411 13.7941V30.1425C23.8411 30.6819 24.2783 31.1191 24.8177 31.1191C25.357 31.1191 25.7943 30.6819 25.7943 30.1425V23.7529C25.7943 22.8374 26.539 22.0927 27.4544 22.0927C28.3698 22.0927 29.1146 22.8374 29.1146 23.7529V24.6953V30.1425C29.1146 30.6819 29.5518 31.1191 30.0911 31.1191C30.6305 31.1191 31.0677 30.6819 31.0677 30.1425V24.6953V23.7529C31.0677 22.8374 31.8124 22.0927 32.7278 22.0927C33.6433 22.0927 34.388 22.8374 34.388 23.7529V25.85V27.539V30.1426C34.388 30.682 34.8252 31.1192 35.3646 31.1192C35.9039 31.1192 36.3411 30.682 36.3411 30.1426V27.539V25.85C36.3411 24.9346 37.0858 24.1899 38.0013 24.1899C38.9167 24.1899 39.6614 24.9346 39.6614 25.85V36.0623C39.6614 36.7898 39.5959 37.5181 39.4665 38.2271C39.3697 38.7577 39.7214 39.2662 40.252 39.363C40.3112 39.3738 40.3701 39.379 40.4283 39.379C40.891 39.379 41.302 39.0489 41.388 38.5775C41.5383 37.7531 41.6146 36.907 41.6146 36.0622V25.85C41.6146 23.8577 39.9937 22.2368 38.0013 22.2368Z" fill="#383838"/>
<path d="M37.2304 44.8753C36.8626 44.481 36.2445 44.4596 35.8503 44.8274C33.6249 46.9035 30.7221 48.0469 27.6768 48.0469C23.108 48.0469 18.8719 45.3885 16.885 41.2742L12.3867 31.96C11.9809 31.1199 12.2961 30.0965 13.104 29.63C13.9393 29.1479 15.0269 29.4255 15.5289 30.2489L18.7104 35.4691C18.9382 35.8429 19.3869 36.0194 19.8083 35.9012C20.2297 35.7829 20.5209 35.3986 20.5209 34.9609V25.3906C20.5209 24.8513 20.0837 24.4141 19.5443 24.4141C19.0049 24.4141 18.5677 24.8513 18.5677 25.3906V31.4821L17.1966 29.2325C16.1297 27.4817 13.9029 26.9134 12.1274 27.9386C10.4384 28.9137 9.77975 31.0532 10.628 32.8094L15.1263 42.1236C16.2675 44.4866 18.0456 46.4729 20.2682 47.8678C22.4909 49.2627 25.0528 50 27.6769 50C31.2185 50 34.5943 48.6702 37.1826 46.2556C37.5769 45.8876 37.5984 45.2697 37.2304 44.8753Z" fill="#383838"/>
<path d="M39.757 41.5625C39.5754 41.3809 39.3234 41.2764 39.0666 41.2764C38.8098 41.2764 38.5578 41.3809 38.3762 41.5625C38.1945 41.7441 38.09 41.9961 38.09 42.2529C38.09 42.5107 38.1945 42.7617 38.3762 42.9434C38.5578 43.125 38.8098 43.2295 39.0666 43.2295C39.3234 43.2295 39.5754 43.125 39.757 42.9434C39.9387 42.7617 40.0432 42.5107 40.0432 42.2529C40.0432 41.9961 39.9387 41.7441 39.757 41.5625Z" fill="#383838"/>
<path d="M20.2346 21.5752C20.0529 21.3936 19.801 21.2891 19.5441 21.2891C19.2873 21.2891 19.0353 21.3936 18.8537 21.5752C18.6721 21.7568 18.5676 22.0088 18.5676 22.2656C18.5676 22.5225 18.6721 22.7744 18.8537 22.9561C19.0353 23.1377 19.2873 23.2422 19.5441 23.2422C19.801 23.2422 20.0529 23.1377 20.2346 22.9561C20.4162 22.7744 20.5207 22.5225 20.5207 22.2656C20.5207 22.0088 20.4162 21.7568 20.2346 21.5752Z" fill="#383838"/>
</svg>
