<svg width="50" height="45" viewBox="0 0 50 45" fill="none" xmlns="http://www.w3.org/2000/svg">
<g opacity="0.9">
<path d="M17.3575 0.286133C17.1759 0.104492 16.9239 0 16.6671 0C16.4093 0 16.1583 0.104492 15.9767 0.286133C15.795 0.467773 15.6905 0.719727 15.6905 0.976562C15.6905 1.2334 15.795 1.48535 15.9767 1.66699C16.1583 1.84863 16.4093 1.95312 16.6671 1.95312C16.9239 1.95312 17.1759 1.84863 17.3575 1.66699C17.5392 1.48535 17.6436 1.2334 17.6436 0.976562C17.6436 0.719727 17.5392 0.467773 17.3575 0.286133Z" fill="#383838"/>
<path d="M49.0234 0H20.8333C20.2939 0 19.8567 0.437207 19.8567 0.976562C19.8567 1.51592 20.2939 1.95312 20.8333 1.95312H48.0469V9.94639L30.2338 27.7593C29.8524 28.1406 29.8524 28.759 30.2338 29.1404C30.4245 29.3311 30.6744 29.4265 30.9243 29.4265C31.1742 29.4265 31.4242 29.3311 31.6148 29.1404L48.0469 12.7085V33.5938H1.95312V1.95312H12.4023C12.9417 1.95312 13.3789 1.51592 13.3789 0.976562C13.3789 0.437207 12.9417 0 12.4023 0H0.976562C0.437207 0 0 0.437207 0 0.976562V34.5703C0 35.1097 0.437207 35.5469 0.976562 35.5469H17.7734V38.8672H12.1094C11.57 38.8672 11.1328 39.3044 11.1328 39.8438V42.7734H5.58145C5.04209 42.7734 4.60488 43.2106 4.60488 43.75C4.60488 44.2894 5.04209 44.7266 5.58145 44.7266H40.9222C41.4615 44.7266 41.8987 44.2894 41.8987 43.75C41.8987 43.2106 41.4615 42.7734 40.9222 42.7734H38.8672V39.8438C38.8672 39.3044 38.43 38.8672 37.8906 38.8672H32.2266V35.5469H49.0234C49.5628 35.5469 50 35.1097 50 34.5703V0.976562C50 0.437207 49.5628 0 49.0234 0ZM19.7266 35.5469H30.2734V38.8672H19.7266V35.5469ZM36.9141 40.8203V42.7734H13.0859V40.8203H18.75H31.25H36.9141Z" fill="#383838"/>
<path d="M17.3202 8.58594C16.9389 8.20449 16.3206 8.20469 15.9391 8.58594L7.2959 17.2291C6.91455 17.6105 6.91455 18.2288 7.2959 18.6103C7.48662 18.801 7.73652 18.8963 7.98643 18.8963C8.23633 18.8963 8.48633 18.8009 8.67695 18.6103L17.3202 9.96709C17.7016 9.58565 17.7017 8.96729 17.3202 8.58594Z" fill="#383838"/>
<path d="M5.91893 19.9873C5.73729 19.8057 5.48534 19.7012 5.2285 19.7012C4.97166 19.7012 4.71971 19.8057 4.53807 19.9873C4.35643 20.1689 4.25194 20.4199 4.25194 20.6777C4.25194 20.9346 4.35643 21.1865 4.53807 21.3682C4.71971 21.5498 4.97166 21.6543 5.2285 21.6543C5.48534 21.6543 5.73729 21.5498 5.91893 21.3682C6.10057 21.1865 6.20506 20.9346 6.20506 20.6777C6.20506 20.4209 6.10057 20.1689 5.91893 19.9873Z" fill="#383838"/>
<path d="M45.1093 43.0596C44.9277 42.8779 44.6757 42.7734 44.4189 42.7734C44.1611 42.7734 43.9101 42.8779 43.7284 43.0596C43.5458 43.2412 43.4423 43.4932 43.4423 43.75C43.4423 44.0068 43.5458 44.2588 43.7284 44.4404C43.9091 44.6221 44.1611 44.7266 44.4189 44.7266C44.6757 44.7266 44.9277 44.6221 45.1093 44.4404C45.2909 44.2588 45.3954 44.0068 45.3954 43.75C45.3954 43.4932 45.2909 43.2412 45.1093 43.0596Z" fill="#383838"/>
<path d="M23.0179 13.183H17.5491C17.0097 13.183 16.5725 13.6202 16.5725 14.1595C16.5725 14.6989 17.0097 15.1361 17.5491 15.1361H19.3069V22.3633C19.3069 22.9026 19.7441 23.3398 20.2835 23.3398C20.8228 23.3398 21.26 22.9026 21.26 22.3633V15.1361H23.0179C23.5572 15.1361 23.9944 14.6989 23.9944 14.1595C23.9944 13.6202 23.5572 13.183 23.0179 13.183Z" fill="#383838"/>
<path d="M32.7595 13.2331C32.2479 13.0627 31.6948 13.3389 31.5243 13.8507L29.7164 19.2749L27.9084 13.8507C27.7379 13.3391 27.1847 13.0627 26.6732 13.2331C26.1616 13.4036 25.885 13.9566 26.0555 14.4683L28.7899 22.672C28.9228 23.0709 29.296 23.3398 29.7164 23.3398C30.1367 23.3398 30.5099 23.0709 30.6428 22.672L33.3772 14.4683C33.5478 13.9566 33.2712 13.4036 32.7595 13.2331Z" fill="#383838"/>
</g>
</svg>
