<svg width="50" height="50" fill="none" xmlns="http://www.w3.org/2000/svg"><g clip-path="url(#clip0)" fill="#383838"><path d="M15.823 26.94a1.163 1.163 0 00.822-1.985c-4.576-4.587-4.576-12.013 0-16.6A1.162 1.162 0 1015 6.713C9.517 12.207 9.517 21.104 15 26.6c.218.218.514.34.823.34zM33.302 6.712a1.163 1.163 0 000 1.644c4.577 4.587 4.577 12.012 0 16.6a1.163 1.163 0 001.645 1.644c5.483-5.496 5.483-14.393 0-19.888a1.163 1.163 0 00-1.645 0z"/><path d="M10.274.34a1.163 1.163 0 00-1.644 0c-9.026 9.027-9.026 23.662 0 32.688a1.163 1.163 0 101.644-1.644c-8.117-8.119-8.117-21.28 0-29.4a1.163 1.163 0 000-1.643zm29.399 0a1.163 1.163 0 000 1.645c8.118 8.119 8.118 21.28 0 29.399a1.163 1.163 0 001.645 1.645c9.025-9.027 9.025-23.662 0-32.688a1.163 1.163 0 00-1.645 0zM28.07 21.58a5.796 5.796 0 10-6.193 0l-9.753 26.86A1.163 1.163 0 0013.216 50h23.515a1.163 1.163 0 001.093-1.56L28.07 21.58zm-3.096-8.366a3.47 3.47 0 110 6.941 3.47 3.47 0 010-6.941zm0 9.266c.308 0 .617-.025.922-.074l4.109 11.315H19.943l4.109-11.314a5.8 5.8 0 00.922.073zM14.876 47.674l4.222-11.627h11.75l4.223 11.627H14.876z"/></g><defs><clipPath id="clip0"><path fill="#fff" d="M0 0h50v50H0z"/></clipPath></defs></svg>