<svg width="15" height="15" fill="none" xmlns="http://www.w3.org/2000/svg"><path d="M11.309 6.738a.586.586 0 100-1.172.586.586 0 000 1.172z" fill="#89B7C5"/><path d="M12.656 1.172h-.761V.586a.586.586 0 10-1.172 0v.586H8.057V.586a.586.586 0 10-1.172 0v.586H4.248V.586a.586.586 0 10-1.172 0v.586h-.732A2.346 2.346 0 000 3.516v9.14A2.346 2.346 0 002.344 15h4.482a.586.586 0 100-1.172H2.344a1.173 1.173 0 01-1.172-1.172v-9.14c0-.647.526-1.172 1.172-1.172h.732v.586a.586.586 0 101.172 0v-.586h2.637v.586a.586.586 0 101.172 0v-.586h2.666v.586a.586.586 0 101.171 0v-.586h.762c.646 0 1.172.525 1.172 1.172v3.34a.586.586 0 101.172 0v-3.34a2.346 2.346 0 00-2.344-2.344z" fill="#89B7C5"/><path d="M11.455 7.91a3.549 3.549 0 00-3.545 3.545A3.549 3.549 0 0011.455 15 3.549 3.549 0 0015 11.455a3.549 3.549 0 00-3.545-3.545zm0 5.918a2.376 2.376 0 01-2.373-2.373 2.376 2.376 0 012.373-2.373 2.376 2.376 0 012.373 2.373 2.376 2.376 0 01-2.373 2.373z" fill="#89B7C5"/><path d="M12.305 10.87h-.264v-.616a.586.586 0 10-1.172 0v1.201c0 .324.263.586.586.586h.85a.586.586 0 100-1.172zM8.76 6.738a.586.586 0 100-1.172.586.586 0 000 1.172zM6.21 9.287a.586.586 0 100-1.172.586.586 0 000 1.172zM3.662 6.738a.586.586 0 100-1.172.586.586 0 000 1.172zm0 2.549a.586.586 0 100-1.172.586.586 0 000 1.172zm0 2.549a.586.586 0 100-1.172.586.586 0 000 1.172zm2.548 0a.586.586 0 10.001-1.172.586.586 0 000 1.172zm0-5.098a.586.586 0 100-1.172.586.586 0 000 1.172z" fill="#89B7C5"/></svg>