<svg width="1874" height="575" fill="none" xmlns="http://www.w3.org/2000/svg"><path fill-rule="evenodd" clip-rule="evenodd" d="M656.879 114.879a2.998 2.998 0 014.242 0l7.104 7.104a2.998 2.998 0 010 4.242 2.998 2.998 0 01-4.242 0l-7.104-7.104a2.998 2.998 0 010-4.242z" fill="#E0E0E0"/><path fill-rule="evenodd" clip-rule="evenodd" d="M668.225 114.879a2.998 2.998 0 010 4.242l-7.104 7.104a2.998 2.998 0 01-4.242 0 2.998 2.998 0 010-4.242l7.104-7.104a2.998 2.998 0 014.242 0zm-85.346 66a2.998 2.998 0 014.242 0l7.104 7.104a2.998 2.998 0 010 4.242 2.998 2.998 0 01-4.242 0l-7.104-7.104a2.998 2.998 0 010-4.242z" fill="#E0E0E0"/><path fill-rule="evenodd" clip-rule="evenodd" d="M594.225 180.879a2.998 2.998 0 010 4.242l-7.104 7.104a2.998 2.998 0 01-4.242 0 2.998 2.998 0 010-4.242l7.104-7.104a2.998 2.998 0 014.242 0zm136.654 50a2.998 2.998 0 014.242 0l7.104 7.104a2.998 2.998 0 010 4.242 2.998 2.998 0 01-4.242 0l-7.104-7.104a2.998 2.998 0 010-4.242z" fill="#E0E0E0"/><path fill-rule="evenodd" clip-rule="evenodd" d="M742.225 230.879a2.998 2.998 0 010 4.242l-7.104 7.104a2.998 2.998 0 01-4.242 0 2.998 2.998 0 010-4.242l7.104-7.104a2.998 2.998 0 014.242 0zm52.654-62a2.998 2.998 0 014.242 0l7.104 7.104a2.998 2.998 0 010 4.242 2.998 2.998 0 01-4.242 0l-7.104-7.104a2.998 2.998 0 010-4.242z" fill="#E0E0E0"/><path fill-rule="evenodd" clip-rule="evenodd" d="M806.225 168.879a2.998 2.998 0 010 4.242l-7.104 7.104a2.998 2.998 0 01-4.242 0 2.998 2.998 0 010-4.242l7.104-7.104a2.998 2.998 0 014.242 0zm-88.346 149a2.998 2.998 0 014.242 0l7.104 7.104a2.998 2.998 0 010 4.242 2.998 2.998 0 01-4.242 0l-7.104-7.104a2.998 2.998 0 010-4.242z" fill="#E0E0E0"/><path fill-rule="evenodd" clip-rule="evenodd" d="M729.225 317.879a2.998 2.998 0 010 4.242l-7.104 7.104a2.998 2.998 0 01-4.242 0 2.998 2.998 0 010-4.242l7.104-7.104a2.998 2.998 0 014.242 0zm-190.346-26a2.998 2.998 0 014.242 0l7.104 7.104a2.998 2.998 0 010 4.242 2.998 2.998 0 01-4.242 0l-7.104-7.104a2.998 2.998 0 010-4.242z" fill="#E0E0E0"/><path fill-rule="evenodd" clip-rule="evenodd" d="M550.225 291.879a2.998 2.998 0 010 4.242l-7.104 7.104a2.998 2.998 0 01-4.242 0 2.998 2.998 0 010-4.242l7.104-7.104a2.998 2.998 0 014.242 0zm-74.346-218a3 3 0 014.242 0l7.104 7.104a3 3 0 11-4.242 4.242l-7.104-7.104a3 3 0 010-4.242z" fill="#E0E0E0"/><path fill-rule="evenodd" clip-rule="evenodd" d="M487.225 73.879a3 3 0 010 4.242l-7.104 7.104a3 3 0 11-4.242-4.242l7.104-7.104a3 3 0 014.242 0zm-69.346 475a2.998 2.998 0 014.242 0l7.104 7.104a2.998 2.998 0 010 4.242 2.998 2.998 0 01-4.242 0l-7.104-7.104a2.998 2.998 0 010-4.242z" fill="#E0E0E0"/><path fill-rule="evenodd" clip-rule="evenodd" d="M429.225 548.879a2.998 2.998 0 010 4.242l-7.104 7.104a2.998 2.998 0 01-4.242 0 2.998 2.998 0 010-4.242l7.104-7.104a2.998 2.998 0 014.242 0zm465.654-522a3 3 0 014.242 0l7.104 7.104a3 3 0 11-4.242 4.242l-7.104-7.104a3 3 0 010-4.242z" fill="#E0E0E0"/><path fill-rule="evenodd" clip-rule="evenodd" d="M906.225 26.879a3 3 0 010 4.242l-7.104 7.104a3 3 0 11-4.242-4.242l7.104-7.104a3 3 0 014.242 0zm185.655-26a2.997 2.997 0 014.24 0l7.11 7.104a3.003 3.003 0 010 4.242 3.009 3.009 0 01-4.25 0l-7.1-7.104a3.003 3.003 0 010-4.242z" fill="#E0E0E0"/><path fill-rule="evenodd" clip-rule="evenodd" d="M1103.23.879a3.003 3.003 0 010 4.242l-7.11 7.104a2.997 2.997 0 01-4.24 0 3.003 3.003 0 010-4.242l7.1-7.104a3.009 3.009 0 014.25 0zm135.65 97a2.997 2.997 0 014.24 0l7.11 7.104a3.002 3.002 0 11-4.25 4.242l-7.1-7.104a3.002 3.002 0 010-4.242z" fill="#E0E0E0"/><path fill-rule="evenodd" clip-rule="evenodd" d="M1250.23 97.879a3.002 3.002 0 010 4.242l-7.11 7.104a2.996 2.996 0 01-4.24 0 3.002 3.002 0 010-4.242l7.1-7.104a3.009 3.009 0 014.25 0zm106.65-46a2.997 2.997 0 014.24 0l7.11 7.104a3.003 3.003 0 010 4.242 3.009 3.009 0 01-4.25 0l-7.1-7.104a3.003 3.003 0 010-4.242z" fill="#E0E0E0"/><path fill-rule="evenodd" clip-rule="evenodd" d="M1368.23 51.879a3.003 3.003 0 010 4.242l-7.11 7.104a2.997 2.997 0 01-4.24 0 3.003 3.003 0 010-4.242l7.1-7.104a3.009 3.009 0 014.25 0zm-136.35 155a2.996 2.996 0 014.24 0l7.11 7.104a3.002 3.002 0 11-4.25 4.242l-7.1-7.104a3.002 3.002 0 010-4.242z" fill="#E0E0E0"/><path fill-rule="evenodd" clip-rule="evenodd" d="M1243.23 206.879a3.002 3.002 0 010 4.242l-7.11 7.104a2.996 2.996 0 01-4.24 0 3.002 3.002 0 010-4.242l7.1-7.104a3.008 3.008 0 014.25 0zm119.65 42a2.996 2.996 0 014.24 0l7.11 7.104a3.002 3.002 0 11-4.25 4.242l-7.1-7.104a3.002 3.002 0 010-4.242z" fill="#E0E0E0"/><path fill-rule="evenodd" clip-rule="evenodd" d="M1374.23 248.879a3.002 3.002 0 010 4.242l-7.11 7.104a2.996 2.996 0 01-4.24 0 3.002 3.002 0 010-4.242l7.1-7.104a3.008 3.008 0 014.25 0zm93.65-67a2.996 2.996 0 014.24 0l7.11 7.104a3.002 3.002 0 11-4.25 4.242l-7.1-7.104a3.002 3.002 0 010-4.242z" fill="#E0E0E0"/><path fill-rule="evenodd" clip-rule="evenodd" d="M1479.23 181.879a3.002 3.002 0 010 4.242l-7.11 7.104a2.996 2.996 0 01-4.24 0 3.002 3.002 0 010-4.242l7.1-7.104a3.008 3.008 0 014.25 0zm133.65-77a2.996 2.996 0 014.24 0l7.11 7.104a3.002 3.002 0 11-4.25 4.242l-7.1-7.104a3.002 3.002 0 010-4.242z" fill="#E0E0E0"/><path fill-rule="evenodd" clip-rule="evenodd" d="M1624.23 104.879a3.002 3.002 0 010 4.242l-7.11 7.104a2.996 2.996 0 01-4.24 0 3.002 3.002 0 010-4.242l7.1-7.104a3.008 3.008 0 014.25 0zm106.65 124a2.996 2.996 0 014.24 0l7.11 7.104a3.002 3.002 0 11-4.25 4.242l-7.1-7.104a3.002 3.002 0 010-4.242z" fill="#E0E0E0"/><path fill-rule="evenodd" clip-rule="evenodd" d="M1742.23 228.879a3.002 3.002 0 010 4.242l-7.11 7.104a2.996 2.996 0 01-4.24 0 3.002 3.002 0 010-4.242l7.1-7.104a3.008 3.008 0 014.25 0zm-135.35 89a2.996 2.996 0 014.24 0l7.11 7.104a3.002 3.002 0 11-4.25 4.242l-7.1-7.104a3.002 3.002 0 010-4.242z" fill="#E0E0E0"/><path fill-rule="evenodd" clip-rule="evenodd" d="M1618.23 317.879a3.002 3.002 0 010 4.242l-7.11 7.104a2.996 2.996 0 01-4.24 0 3.002 3.002 0 010-4.242l7.1-7.104a3.008 3.008 0 014.25 0zm242.65 68a2.996 2.996 0 014.24 0l7.11 7.104a3.002 3.002 0 11-4.25 4.242l-7.1-7.104a3.002 3.002 0 010-4.242z" fill="#E0E0E0"/><path fill-rule="evenodd" clip-rule="evenodd" d="M1872.23 385.879a3.002 3.002 0 010 4.242l-7.11 7.104a2.996 2.996 0 01-4.24 0 3.002 3.002 0 010-4.242l7.1-7.104a3.008 3.008 0 014.25 0zm-50.35-340a2.997 2.997 0 014.24 0l7.11 7.104a3.003 3.003 0 010 4.242 3.009 3.009 0 01-4.25 0l-7.1-7.104a3.003 3.003 0 010-4.242z" fill="#E0E0E0"/><path fill-rule="evenodd" clip-rule="evenodd" d="M1833.23 45.879a3.003 3.003 0 010 4.242l-7.11 7.104a2.997 2.997 0 01-4.24 0 3.003 3.003 0 010-4.242l7.1-7.104a3.009 3.009 0 014.25 0zm-588.35 313a2.996 2.996 0 014.24 0l7.11 7.104a3.002 3.002 0 11-4.25 4.242l-7.1-7.104a3.002 3.002 0 010-4.242z" fill="#E0E0E0"/><path fill-rule="evenodd" clip-rule="evenodd" d="M1256.23 358.879a3.002 3.002 0 010 4.242l-7.11 7.104a2.996 2.996 0 01-4.24 0 3.002 3.002 0 010-4.242l7.1-7.104a3.008 3.008 0 014.25 0zm-890.351-161a2.998 2.998 0 014.242 0l7.104 7.104a2.998 2.998 0 010 4.242 2.998 2.998 0 01-4.242 0l-7.104-7.104a2.998 2.998 0 010-4.242z" fill="#E0E0E0"/><path fill-rule="evenodd" clip-rule="evenodd" d="M377.225 197.879a2.998 2.998 0 010 4.242l-7.104 7.104a2.998 2.998 0 01-4.242 0 2.998 2.998 0 010-4.242l7.104-7.104a2.998 2.998 0 014.242 0zm-125.346-124a3 3 0 014.242 0l7.104 7.104a3 3 0 11-4.242 4.242l-7.104-7.104a3 3 0 010-4.242z" fill="#E0E0E0"/><path fill-rule="evenodd" clip-rule="evenodd" d="M263.225 73.879a3 3 0 010 4.242l-7.104 7.104a3 3 0 11-4.242-4.242l7.104-7.104a3 3 0 014.242 0zm-144.346 164a2.998 2.998 0 014.242 0l7.104 7.104a2.998 2.998 0 010 4.242 2.998 2.998 0 01-4.242 0l-7.104-7.104a2.998 2.998 0 010-4.242z" fill="#E0E0E0"/><path fill-rule="evenodd" clip-rule="evenodd" d="M130.225 237.879a2.998 2.998 0 010 4.242l-7.104 7.104a2.998 2.998 0 01-4.242 0 2.998 2.998 0 010-4.242l7.104-7.104a2.998 2.998 0 014.242 0zM.879 76.879a3 3 0 014.242 0l7.104 7.104a3 3 0 11-4.242 4.242L.879 81.121a3 3 0 010-4.242z" fill="#E0E0E0"/><path fill-rule="evenodd" clip-rule="evenodd" d="M12.225 76.879a3 3 0 010 4.242l-7.104 7.104A3 3 0 11.88 83.983l7.104-7.104a3 3 0 014.242 0zm287.654 221a2.998 2.998 0 014.242 0l7.104 7.104a2.998 2.998 0 010 4.242 2.998 2.998 0 01-4.242 0l-7.104-7.104a2.998 2.998 0 010-4.242z" fill="#E0E0E0"/><path fill-rule="evenodd" clip-rule="evenodd" d="M311.225 297.879a2.998 2.998 0 010 4.242l-7.104 7.104a2.998 2.998 0 01-4.242 0 2.998 2.998 0 010-4.242l7.104-7.104a2.998 2.998 0 014.242 0zm320.654 148a2.998 2.998 0 014.242 0l7.104 7.104a2.998 2.998 0 010 4.242 2.998 2.998 0 01-4.242 0l-7.104-7.104a2.998 2.998 0 010-4.242z" fill="#E0E0E0"/><path fill-rule="evenodd" clip-rule="evenodd" d="M643.225 445.879a2.998 2.998 0 010 4.242l-7.104 7.104a2.998 2.998 0 01-4.242 0 2.998 2.998 0 010-4.242l7.104-7.104a2.998 2.998 0 014.242 0zm773.655-7a2.996 2.996 0 014.24 0l7.11 7.104a3.002 3.002 0 11-4.25 4.242l-7.1-7.104a3.002 3.002 0 010-4.242z" fill="#E0E0E0"/><path fill-rule="evenodd" clip-rule="evenodd" d="M1428.23 438.879a3.002 3.002 0 010 4.242l-7.11 7.104a2.996 2.996 0 01-4.24 0 3.002 3.002 0 010-4.242l7.1-7.104a3.008 3.008 0 014.25 0zm-980.351-40a2.998 2.998 0 014.242 0l7.104 7.104a2.998 2.998 0 010 4.242 2.998 2.998 0 01-4.242 0l-7.104-7.104a2.998 2.998 0 010-4.242z" fill="#E0E0E0"/><path fill-rule="evenodd" clip-rule="evenodd" d="M459.225 398.879a2.998 2.998 0 010 4.242l-7.104 7.104a2.998 2.998 0 01-4.242 0 2.998 2.998 0 010-4.242l7.104-7.104a2.998 2.998 0 014.242 0zm-254.346 85a2.998 2.998 0 014.242 0l7.104 7.104a2.998 2.998 0 010 4.242 2.998 2.998 0 01-4.242 0l-7.104-7.104a2.998 2.998 0 010-4.242z" fill="#E0E0E0"/><path fill-rule="evenodd" clip-rule="evenodd" d="M216.225 483.879a2.998 2.998 0 010 4.242l-7.104 7.104a2.998 2.998 0 01-4.242 0 2.998 2.998 0 010-4.242l7.104-7.104a2.998 2.998 0 014.242 0zm664.654-270a2.998 2.998 0 014.242 0l7.104 7.104a2.998 2.998 0 010 4.242 2.998 2.998 0 01-4.242 0l-7.104-7.104a2.998 2.998 0 010-4.242z" fill="#E0E0E0"/><path fill-rule="evenodd" clip-rule="evenodd" d="M892.225 213.879a2.998 2.998 0 010 4.242l-7.104 7.104a2.998 2.998 0 01-4.242 0 2.998 2.998 0 010-4.242l7.104-7.104a2.998 2.998 0 014.242 0zm193.655 17a2.996 2.996 0 014.24 0l7.11 7.104a3.002 3.002 0 11-4.25 4.242l-7.1-7.104a3.002 3.002 0 010-4.242z" fill="#E0E0E0"/><path fill-rule="evenodd" clip-rule="evenodd" d="M1097.23 230.879a3.002 3.002 0 010 4.242l-7.11 7.104a2.996 2.996 0 01-4.24 0 3.002 3.002 0 010-4.242l7.1-7.104a3.008 3.008 0 014.25 0zm646.65 285a2.996 2.996 0 014.24 0l7.11 7.104a3.002 3.002 0 11-4.25 4.242l-7.1-7.104a3.002 3.002 0 010-4.242z" fill="#E0E0E0"/><path fill-rule="evenodd" clip-rule="evenodd" d="M1755.23 515.879a3.002 3.002 0 010 4.242l-7.11 7.104a2.996 2.996 0 01-4.24 0 3.002 3.002 0 010-4.242l7.1-7.104a3.008 3.008 0 014.25 0zm-883.351-77a2.998 2.998 0 014.242 0l7.104 7.104a2.998 2.998 0 010 4.242 2.998 2.998 0 01-4.242 0l-7.104-7.104a2.998 2.998 0 010-4.242z" fill="#E0E0E0"/><path fill-rule="evenodd" clip-rule="evenodd" d="M883.225 438.879a2.998 2.998 0 010 4.242l-7.104 7.104a2.998 2.998 0 01-4.242 0 2.998 2.998 0 010-4.242l7.104-7.104a2.998 2.998 0 014.242 0zm265.655 70a2.996 2.996 0 014.24 0l7.11 7.104a3.002 3.002 0 11-4.25 4.242l-7.1-7.104a3.002 3.002 0 010-4.242z" fill="#E0E0E0"/><path fill-rule="evenodd" clip-rule="evenodd" d="M1160.23 508.879a3.002 3.002 0 010 4.242l-7.11 7.104a2.996 2.996 0 01-4.24 0 3.002 3.002 0 010-4.242l7.1-7.104a3.008 3.008 0 014.25 0zm-315.351 53a2.998 2.998 0 014.242 0l7.104 7.104a2.998 2.998 0 010 4.242 2.998 2.998 0 01-4.242 0l-7.104-7.104a2.998 2.998 0 010-4.242z" fill="#E0E0E0"/><path fill-rule="evenodd" clip-rule="evenodd" d="M856.225 561.879a2.998 2.998 0 010 4.242l-7.104 7.104a2.998 2.998 0 01-4.242 0 2.998 2.998 0 010-4.242l7.104-7.104a2.998 2.998 0 014.242 0z" fill="#E0E0E0"/></svg>