<svg width="377" height="267" fill="none" xmlns="http://www.w3.org/2000/svg"><path d="M242.921 208.688v47.328h-9.408a6.023 6.023 0 01-6.048-6.048v-35.232a6.023 6.023 0 016.048-6.048h9.408z" fill="#E0E0E0"/><path d="M242.921 204.272c0-2.016 1.824-3.648 3.84-3.36 15.36 1.92 27.36 15.072 27.36 30.912 0 15.936-11.904 29.088-27.36 30.912-2.016.288-3.84-1.344-3.84-3.36v-55.104zm-56.832-.768v56.448c0 1.632-1.44 2.976-3.168 2.784-15.744-1.536-28.032-14.88-28.032-31.008s12.288-29.472 28.032-31.008c1.632-.096 3.168 1.152 3.168 2.784zm15.36-193.536c36.672 0 66.432 29.856 66.432 66.528v2.496c0 .576 0 1.056-.096 1.536v.768c0 .384-.096.768-.096 1.152 0 .288 0 .576-.096.864-.096.768-.192 1.632-.288 2.4-.096.48-.096.864-.192 1.344 0 .288-.096.48-.096.768l-.288 1.44c-.192.864-.384 1.824-.576 2.688-.096.576-.288 1.248-.48 1.824-.192.576-.288 1.152-.48 1.728-.192.768-.48 1.536-.768 2.304-.096.288-.192.576-.288.768-.096.384-.288.768-.384 1.152 0 .096-.096.192-.096.288-.192.576-.48 1.248-.672 1.824-.192.576-.48 1.056-.672 1.632a56.84 56.84 0 01-1.152 2.4c-.288.576-.576 1.152-.864 1.632a17.833 17.833 0 01-1.056 1.824c-.768 1.248-1.44 2.496-2.304 3.744-.384.576-.672 1.056-1.056 1.536-.384.576-.768 1.056-1.152 1.536 0 .096-.096.096-.096.096-.384.576-.864 1.056-1.248 1.632-.384.576-.864 1.056-1.344 1.632-.48.48-.864 1.056-1.344 1.536-.48.48-.96.96-1.44 1.536-.96.96-1.92 1.92-2.976 2.88l-.096.096c-.48.48-.96.864-1.44 1.344-1.056.864-2.112 1.824-3.264 2.592a72.758 72.758 0 01-3.36 2.4l-1.728 1.152a66.083 66.083 0 01-34.752 9.888 66.083 66.083 0 01-34.752-9.888l-1.728-1.152c-1.152-.768-2.304-1.536-3.456-2.4-1.152-.864-2.208-1.728-3.264-2.592-.48-.384-.96-.864-1.44-1.344l-.096-.096c-1.056-.96-2.016-1.92-2.976-2.88-.48-.48-.96-.96-1.44-1.536-.48-.48-.864-1.056-1.344-1.536-.48-.576-.864-1.056-1.344-1.632-.48-.576-.864-1.056-1.248-1.632l-.096-.096c-.384-.48-.768-1.056-1.152-1.536a14.648 14.648 0 01-1.056-1.536l-2.304-3.744c-.384-.576-.672-1.248-1.056-1.824-.288-.576-.576-1.056-.864-1.632-.384-.768-.768-1.632-1.152-2.4a11.71 11.71 0 01-.672-1.632c-.288-.576-.48-1.152-.672-1.824 0-.096-.096-.192-.096-.288-.096-.384-.288-.768-.384-1.152-.096-.288-.192-.576-.288-.768-.288-.768-.48-1.536-.768-2.304-.192-.576-.384-1.152-.48-1.728-.192-.576-.288-1.248-.48-1.824-.192-.864-.384-1.824-.576-2.688l-.288-1.44c0-.288-.096-.48-.096-.768-.096-.48-.096-.864-.192-1.344-.096-.768-.192-1.632-.288-2.4 0-.288-.096-.576-.096-.864 0-.384-.096-.768-.096-1.152 0-.288 0-.48-.096-.768 0-.48-.096-1.056-.096-1.536v-2.496c-.192-36.768 29.568-66.528 66.24-66.528zM236.297 76.4c0-19.2-15.648-34.848-34.752-34.848-19.104 0-34.848 15.648-34.848 34.848s15.648 34.848 34.848 34.848S236.297 95.6 236.297 76.4zm113.952 12.672c-.192-.672-.864-1.248-1.632-1.248h-56.64c-.576 0-1.152-.096-1.632-.384-1.248-.672-1.728-2.016-1.44-3.36l15.648-71.52c.288-1.44 1.536-2.4 2.976-2.4h22.656c1.344 0 2.496.768 2.976 2.112.192.48.192 1.056.096 1.632-.96 4.704-7.968 38.784-9.792 47.52-.192 1.056.576 2.112 1.728 2.112h23.616a1.72 1.72 0 001.728-1.728l-.096-21.6c0-.864.288-1.632.864-2.208.576-.576 1.344-.864 2.208-.864h19.872c1.728 0 3.072 1.344 3.072 3.072v106.176a3.442 3.442 0 01-3.456 3.456h-19.296a3.442 3.442 0 01-3.456-3.456v-23.616c.096-.48.096-.96.096-1.44V89.456c0-.096-.096-.288-.096-.384zM102.953 118.64v27.84a3.442 3.442 0 01-3.456 3.456h-21.12a3.442 3.442 0 01-3.456-3.456V89.648a1.72 1.72 0 00-1.728-1.728h-56.64c-.576 0-1.152-.096-1.632-.384-1.248-.672-1.728-2.016-1.44-3.36L29.13 12.56c.288-1.44 1.536-2.4 2.976-2.4h22.656c1.344 0 2.496.768 2.976 2.112.192.48.192 1.056.096 1.632-.96 4.704-7.968 38.784-9.792 47.52-.192 1.056.576 2.112 1.728 2.112h23.616a1.72 1.72 0 001.728-1.728l-.096-21.6c0-.864.288-1.632.864-2.208.576-.576 1.344-.864 2.208-.864h21.792c1.728 0 3.072 1.344 3.072 3.072v78.432z" fill="#E0E0E0"/><path d="M199.049 9.2c32.832 0 59.52 26.688 59.52 59.52v2.112c0 .48 0 .96-.096 1.44v.672c0 .384-.096.672-.096 1.056 0 .288 0 .48-.096.768-.096.768-.192 1.44-.288 2.112-.096.384-.096.768-.192 1.248 0 .192-.096.48-.096.672-.096.384-.192.864-.288 1.248-.192.864-.288 1.632-.48 2.4-.096.576-.288 1.152-.384 1.632a9.436 9.436 0 01-.48 1.536c-.192.672-.384 1.344-.672 2.016-.096.288-.192.48-.288.768-.096.384-.288.672-.384 1.056 0 .096-.096.192-.096.288a11.71 11.71 0 01-.672 1.632c-.192.48-.384.96-.672 1.44-.288.768-.672 1.44-1.056 2.208-.288.48-.48.96-.768 1.44-.288.576-.576 1.056-.864 1.632-.672 1.152-1.344 2.208-2.016 3.36-.288.48-.672.96-.96 1.44-.288.48-.672.96-1.056 1.44l-.096.096-1.152 1.44-1.152 1.44c-.384.48-.768.96-1.248 1.344-.384.48-.864.864-1.248 1.344-.864.864-1.728 1.728-2.688 2.592l-.096.096c-.48.384-.864.768-1.344 1.152-.96.768-1.92 1.632-2.88 2.304-.96.768-2.016 1.44-3.072 2.112-.48.384-1.056.672-1.536.96-9.024 5.568-19.68 8.832-31.104 8.832s-22.08-3.264-31.104-8.832c-.576-.288-1.056-.672-1.536-.96-1.056-.672-2.016-1.44-3.072-2.112l-2.88-2.304c-.48-.384-.864-.768-1.344-1.152l-.096-.096c-.96-.864-1.824-1.728-2.688-2.592-.384-.48-.864-.864-1.248-1.344-.384-.48-.864-.96-1.248-1.344l-1.152-1.44-1.152-1.44-.096-.096c-.384-.48-.672-.96-1.056-1.44-.288-.48-.672-.96-.96-1.44a23.952 23.952 0 01-2.016-3.36c-.288-.576-.576-1.056-.864-1.632-.288-.48-.48-.96-.768-1.44-.384-.768-.672-1.44-1.056-2.208-.192-.48-.384-.96-.672-1.44a11.71 11.71 0 00-.672-1.632c0-.096-.096-.192-.096-.288-.096-.288-.288-.672-.384-1.056-.096-.288-.192-.48-.288-.768-.192-.672-.48-1.344-.672-2.016-.192-.48-.288-1.056-.48-1.536a10.043 10.043 0 01-.384-1.632c-.192-.768-.384-1.632-.48-2.4-.096-.384-.192-.864-.288-1.248 0-.192-.096-.48-.096-.672-.096-.384-.096-.768-.192-1.248-.096-.672-.192-1.44-.288-2.112 0-.288-.096-.48-.096-.768 0-.384-.096-.672-.096-1.056v-.672c0-.48-.096-.96-.096-1.44V68.72c.192-32.832 26.88-59.52 59.712-59.52zm31.104 59.52c0-17.184-14.016-31.104-31.104-31.104-17.184 0-31.104 14.016-31.104 31.104 0 17.184 14.016 31.104 31.104 31.104 17.184.096 31.104-13.92 31.104-31.104zM35.37 2L19.72 73.616c-.288 1.248.288 2.592 1.44 3.36.48.288 1.056.384 1.632.384h56.16c.96 0 1.728.768 1.728 1.728v43.488M311.369 2l-15.648 71.616c-.288 1.248.288 2.592 1.44 3.36.48.288 1.056.384 1.632.384h56.16c.96 0 1.728.768 1.728 1.728v43.488" stroke="#F9F7F4" stroke-width="4" stroke-miterlimit="10" stroke-linecap="round"/><path d="M176.681 200.625c-17.184 0-31.2 14.016-31.2 31.2 0 17.184 14.016 31.2 31.2 31.2m-.096-62.785v62.4m1.92-50.88h19.2m-19.2 37.44h19.2m-5.664-137.952c-19.2 0-34.848-15.648-34.848-34.848s15.648-34.848 34.848-34.848S226.889 57.2 226.889 76.4s-15.648 34.848-34.848 34.848zm-9.216-43.968l21.12 21.024m-21.12 0l21.12-21.024" stroke="#2E90DB" stroke-width="7" stroke-miterlimit="10" stroke-linecap="round" stroke-linejoin="round"/><path d="M65.61 208.88c0 12.672 10.271 23.04 23.04 23.04h57.311M65.61 152.048v33.312M8.201 65.168L4.073 84.176c-.288 1.248.288 2.592 1.44 3.36.48.288 1.056.384 1.632.384h56.64c.96 0 1.728.768 1.728 1.728v45.696" stroke="#2E90DB" stroke-width="7" stroke-miterlimit="10" stroke-linecap="round" stroke-linejoin="round"/><path d="M157.769 133.04h-49.92a14.38 14.38 0 01-14.4-14.4V40.112c0-1.728-1.344-3.072-3.072-3.072H68.681c-.768 0-1.632.288-2.208.864-.576.576-.864 1.344-.864 2.208l.096 22.08a1.72 1.72 0 01-1.728 1.728H40.17c-1.056 0-1.92-.96-1.728-2.112 1.824-8.832 8.832-43.104 9.792-47.904.096-.576.096-1.152-.096-1.632-.48-1.344-1.632-2.112-2.976-2.112H22.793c-1.44 0-2.688.96-2.976 2.4m108 81.12c4.512 16.512 15.168 30.528 29.472 39.36m15.744-120.288c-27.36 8.256-47.424 33.696-47.424 63.744m101.184 56.544c19.008-11.712 31.68-32.736 31.68-56.64 0-36.672-29.856-67.296-66.528-66.528m95.136 123.168h-38.976m38.016-79.584l-6.72 30.816c-.288 1.248.288 2.592 1.44 3.36.48.288 1.056.384 1.632.384h57.216a.86.86 0 01.864.864v38.4a5.818 5.818 0 01-5.856 5.856h-27.936m59.808-37.056V40.112c0-1.728-1.344-3.072-3.072-3.072h-19.776c-.768 0-1.632.288-2.208.864-.576.576-.864 1.344-.864 2.208l.096 22.08a1.72 1.72 0 01-1.728 1.728h-23.808c-1.056 0-1.92-.96-1.728-2.112 1.824-8.832 8.832-43.104 9.792-47.904.096-.576.096-1.152-.096-1.632-.48-1.344-1.632-2.112-2.976-2.112h-22.272c-1.44 0-2.688.96-2.976 2.4l-4.224 19.2m75.84 111.648v-17.952M346.217 231.92c12.672 0 21.12-10.272 21.12-23.04v-36.96m-100.896 60h57.024m-89.952-31.295c17.184 0 31.2 14.016 31.2 31.2 0 17.184-14.016 31.2-31.2 31.2m.289-62.785v62.4" stroke="#2E90DB" stroke-width="7" stroke-miterlimit="10" stroke-linecap="round" stroke-linejoin="round"/><path d="M233.801 208.88h-15.36v47.04h15.36v-47.04z" stroke="#2E90DB" stroke-width="7" stroke-miterlimit="10" stroke-linecap="round" stroke-linejoin="round"/></svg>