<svg width="50" height="50" fill="none" xmlns="http://www.w3.org/2000/svg"><path d="M40.234 13.281a.977.977 0 101.954 0 .977.977 0 00-1.954 0zM44.14 25c0 1.25-.125 2.5-.372 3.71a.977.977 0 001.914.392c.273-1.34.412-2.72.412-4.102 0-3.075-.667-6.034-1.983-8.795a.976.976 0 10-1.763.84A18.35 18.35 0 0144.141 25zm-14.257 8.79h-.977V21.093a.976.976 0 00-.976-.977h-7.813a.977.977 0 00-.976.977V25c0 .54.437.977.976.977h.977v7.812h-.977a.976.976 0 00-.976.977v3.906c0 .54.437.976.976.976h9.766c.54 0 .976-.437.976-.976v-3.906a.976.976 0 00-.976-.977zm-.977 3.905h-7.812v-1.953h.976c.54 0 .977-.437.977-.976V25a.977.977 0 00-.977-.977h-.976V22.07h5.86v12.696c0 .539.437.976.976.976h.976v1.953zM25 18.164a3.91 3.91 0 003.906-3.906A3.91 3.91 0 0025 10.352a3.91 3.91 0 00-3.906 3.906A3.91 3.91 0 0025 18.164zm0-5.86c1.077 0 1.953.877 1.953 1.954A1.955 1.955 0 0125 16.21a1.955 1.955 0 01-1.953-1.953c0-1.077.876-1.953 1.953-1.953z" fill="#383838"/><path d="M25 0C11.526 0 0 11.504 0 25c0 4.61 1.321 9.513 3.548 13.221L.05 48.715a.976.976 0 001.236 1.235l10.493-3.498C15.487 48.679 20.39 50 25 50c13.478 0 25-11.505 25-25C50 11.522 38.495 0 25 0zm0 48.047c-4.422 0-9.123-1.305-12.574-3.491a.976.976 0 00-.832-.101l-9.073 3.024 3.024-9.073a.975.975 0 00-.101-.832c-2.186-3.45-3.49-8.152-3.49-12.574C1.953 12.507 12.506 1.953 25 1.953c12.493 0 23.047 10.554 23.047 23.047S37.493 48.047 25 48.047z" fill="#383838"/></svg>