<svg width="15" height="15" fill="none" xmlns="http://www.w3.org/2000/svg"><g clip-path="url(#clip0)" fill="#fff"><path d="M11.855 9.292c-.307-.32-.678-.49-1.07-.49-.39 0-.763.167-1.083.487l-1 .997-.244-.127c-.114-.057-.222-.11-.314-.167-.937-.596-1.788-1.371-2.605-2.375-.396-.5-.662-.921-.855-1.348.26-.238.5-.485.735-.722l.265-.27c.665-.664.665-1.525 0-2.19l-.864-.864c-.098-.099-.2-.2-.294-.301-.19-.196-.39-.4-.595-.59C3.624 1.03 3.256.869 2.87.869c-.386 0-.76.161-1.076.465l-.007.006L.711 2.425a2.32 2.32 0 00-.687 1.472c-.076.925.196 1.786.405 2.35.513 1.383 1.28 2.665 2.422 4.039a14.9 14.9 0 004.96 3.885c.73.345 1.701.753 2.787.823.066.003.136.006.2.006.73 0 1.345-.263 1.826-.785.003-.006.01-.01.013-.016.164-.2.354-.38.554-.573.136-.13.275-.266.411-.409.314-.325.478-.705.478-1.095 0-.392-.168-.77-.487-1.086l-1.738-1.744zm1.133 3.334c-.003 0-.003.003 0 0-.123.133-.25.253-.386.386a8.29 8.29 0 00-.611.633c-.32.342-.697.503-1.19.503-.048 0-.099 0-.146-.003-.94-.06-1.814-.427-2.47-.74a14.062 14.062 0 01-4.672-3.66C2.433 8.443 1.71 7.24 1.233 5.949.94 5.16.831 4.546.88 3.967c.031-.37.174-.678.437-.94l1.08-1.08c.154-.146.319-.225.48-.225.2 0 .361.12.463.222l.01.01c.192.18.376.367.569.566.098.101.2.203.3.307l.865.864c.336.336.336.646 0 .982-.092.092-.18.184-.272.272-.266.272-.52.526-.795.773-.006.006-.013.01-.016.015-.272.273-.221.539-.164.72l.01.028c.224.544.54 1.057 1.022 1.668l.003.003c.874 1.077 1.795 1.916 2.811 2.558.13.082.263.149.39.212.114.057.221.111.313.168.013.006.025.016.038.022.108.054.209.08.313.08.263 0 .428-.165.482-.219L10.3 9.89c.108-.107.279-.237.478-.237.197 0 .358.123.456.23l.007.007 1.744 1.745c.326.322.326.655.003.99zM8.106 3.568c.83.14 1.583.532 2.185 1.133.601.602.99 1.355 1.133 2.185a.425.425 0 00.421.354c.026 0 .048-.003.073-.006a.428.428 0 00.352-.494 4.883 4.883 0 00-1.371-2.643 4.882 4.882 0 00-2.644-1.371.43.43 0 00-.494.348.423.423 0 00.345.494zm6.877 3.049a8.033 8.033 0 00-2.258-4.353A8.033 8.033 0 008.372.006a.426.426 0 10-.139.843c1.475.25 2.82.95 3.89 2.016a7.172 7.172 0 012.018 3.891.425.425 0 00.42.355c.026 0 .048-.004.073-.007a.42.42 0 00.349-.487z"/></g><defs><clipPath id="clip0"><path fill="#fff" d="M0 0h15v15H0z"/></clipPath></defs></svg>