<svg width="22" height="22" fill="none" xmlns="http://www.w3.org/2000/svg"><g clip-path="url(#clip0)" fill="#A7A7A7"><path d="M17.387 13.628c-.45-.469-.994-.72-1.57-.72-.57 0-1.119.247-1.588.716l-1.467 1.462c-.12-.065-.241-.125-.357-.186a5.673 5.673 0 01-.46-.246c-1.374-.873-2.623-2.01-3.821-3.482-.58-.734-.97-1.351-1.254-1.978.38-.348.734-.71 1.077-1.059l.39-.394c.975-.976.975-2.239 0-3.214L7.07 3.26a19.338 19.338 0 01-.432-.441 21.925 21.925 0 00-.873-.864c-.45-.446-.99-.683-1.556-.683-.566 0-1.114.237-1.578.683l-.01.01-1.578 1.592A3.397 3.397 0 00.035 5.716C-.076 7.072.323 8.335.63 9.161c.753 2.03 1.876 3.91 3.553 5.925 2.033 2.429 4.48 4.346 7.275 5.697 1.068.506 2.494 1.105 4.087 1.208.097.004.2.009.292.009 1.073 0 1.973-.386 2.68-1.152.004-.009.013-.014.018-.023.241-.292.52-.557.812-.84.2-.19.404-.39.604-.6.46-.478.701-1.035.701-1.606 0-.576-.246-1.128-.715-1.592l-2.549-2.559zm1.662 4.89c-.004 0-.004.004 0 0-.18.194-.367.371-.566.566-.302.288-.608.59-.896.929-.47.501-1.022.738-1.746.738-.07 0-.144 0-.214-.005-1.379-.088-2.66-.627-3.622-1.086a20.624 20.624 0 01-6.853-5.368C3.569 12.384 2.51 10.62 1.809 8.725c-.432-1.156-.59-2.057-.52-2.907.046-.543.255-.993.64-1.379l1.584-1.583c.227-.214.469-.33.706-.33.292 0 .529.177.678.325l.014.014c.283.265.552.539.835.831.144.149.293.297.441.45l1.268 1.268c.492.492.492.947 0 1.44-.135.134-.265.269-.4.399-.39.4-.76.77-1.165 1.133-.009.01-.018.014-.023.023-.4.4-.325.79-.241 1.054l.014.042c.33.799.794 1.55 1.5 2.447l.004.005c1.281 1.578 2.633 2.809 4.123 3.751.19.121.386.219.571.311.167.084.325.163.46.247.018.009.037.023.056.032.158.079.306.116.46.116.385 0 .626-.241.705-.32l1.588-1.588c.158-.158.409-.348.701-.348.288 0 .525.18.669.338a.408.408 0 00.01.01l2.558 2.558c.478.474.478.961.004 1.453zM11.89 5.233a5.888 5.888 0 013.203 1.663 5.919 5.919 0 011.662 3.203c.052.307.316.52.618.52a.627.627 0 00.622-.734 7.162 7.162 0 00-2.01-3.876 7.162 7.162 0 00-3.877-2.01.63.63 0 00-.725.51.62.62 0 00.506.724zm10.084 4.472a11.782 11.782 0 00-3.31-6.385A11.782 11.782 0 0012.279.01a.624.624 0 00-.72.51.63.63 0 00.516.725 10.55 10.55 0 015.707 2.957 10.518 10.518 0 012.957 5.707c.052.306.316.52.618.52.037 0 .07-.005.107-.01a.615.615 0 00.51-.714z"/></g><defs><clipPath id="clip0"><path fill="#fff" d="M0 0h22v22H0z"/></clipPath></defs></svg>