<svg xmlns="http://www.w3.org/2000/svg" viewBox="0 0 85.84 89.16"><g stroke="#383838" fill="none" stroke-linecap="round" stroke-linejoin="round"><path d="M85.59 24.41l-7.8 24.45C39.49 49.72 37.39 65 44 83.13c-10.39-10.88-14-23.32-9.08-34a27.25 27.25 0 016.35-8.59c5.17-1.51 11.9-2.43 20.51-2.62h.8l.24-.76 2.8-8.77a139.89 139.89 0 0120-3.95" stroke-width="2.5"/><path d="M44.78 83.37c4.28 3.36 8.57 5.44 12.85 5.67l-4.1-13.39A19 19 0 0142 68.05c-.44 3.94.31 8.89 2.82 15.32" stroke-width="1.5"/></g><g stroke="#383838" fill="none" stroke-linecap="round" stroke-linejoin="round"><path d="M69.3 12.35L61.5 36.8c-38.3.86-40.4 16.12-33.84 34.27-10.39-10.88-14-23.32-9.07-34a27.33 27.33 0 016.34-8.59C30.1 27 36.83 26 45.44 25.85h.8l.24-.76 2.8-8.77a140.17 140.17 0 0120-4" stroke-width="2.5"/><path d="M28.52 71.28a25.37 25.37 0 008.33 4.59c-.35-.57-.69-1.13-1-1.69A29.57 29.57 0 0132 62.62a18.58 18.58 0 01-6.09-5.35c-.41 3.61.28 8.13 2.58 14" stroke-width="1.5"/></g><g stroke="#383838" fill="none" stroke-linecap="round" stroke-linejoin="round"><path d="M53.14.25l-7.8 24.45C7 25.56 4.94 40.82 11.5 59 1.11 48.09-2.5 35.65 2.42 25 7.68 13.52 21 7.71 32.4 4.41A135.43 135.43 0 0153.14.25" stroke-width="2.5"/><path d="M12.25 59.11a25.37 25.37 0 008.33 4.59c-.36-.56-.69-1.12-1-1.69a29.72 29.72 0 01-3.81-11.56 18.57 18.57 0 01-6.09-5.34c-.41 3.6.28 8.13 2.58 14" stroke-width="1.5"/></g></svg>