<svg width="27" height="50" fill="none" xmlns="http://www.w3.org/2000/svg"><path d="M10.85 3.333a.83.83 0 00-.83.834.837.837 0 001.672 0 .833.833 0 00-.834-.834h-.008zM11.667 45A1.668 1.668 0 0015 45c0-.92-.747-1.667-1.667-1.667-.919 0-1.666.748-1.666 1.667z" fill="#383838"/><path d="M.833 38.333c.46 0 .834-.373.834-.833V4.167c0-1.215 1.285-2.5 2.5-2.5H22.5c1.215 0 2.5 1.285 2.5 2.5a.834.834 0 001.667 0C26.667 2.025 24.642 0 22.5 0H4.167C2.025 0 0 2.025 0 4.167V37.5c0 .46.373.833.833.833z" fill="#383838"/><path d="M14.167 3.333a.834.834 0 000 1.667H17.5a.834.834 0 000-1.667h-3.333zM20.833 15a.832.832 0 00.59-1.422l-1.667-1.667a.833.833 0 10-1.178 1.178l1.666 1.667a.83.83 0 00.59.244zm-7.255-3.09a.833.833 0 000 1.18l6.666 6.666a.831.831 0 001.179 0 .832.832 0 000-1.178l-6.667-6.667a.832.832 0 00-1.178 0z" fill="#383838"/><path d="M25.833 6.667H4.167a.834.834 0 000 1.666H25v37.5c0 1.215-1.285 2.5-2.5 2.5H4.167c-1.215 0-2.5-1.285-2.5-2.5v-4.166H22.5a.834.834 0 000-1.667H.833a.834.834 0 00-.833.833v5C0 47.975 2.025 50 4.167 50H22.5c2.142 0 4.167-2.025 4.167-4.167V7.5a.834.834 0 00-.834-.833z" fill="#383838"/></svg>