<svg width="50" height="50" fill="none" xmlns="http://www.w3.org/2000/svg"><path d="M22.181 0a.977.977 0 00-.977.977v6.022a.977.977 0 001.953 0V.977A.977.977 0 0022.181 0zm12.816 12.819h-6.022a.977.977 0 100 1.953h6.022a.977.977 0 000-1.953zm-19.613-.003H9.362a.977.977 0 100 1.953h6.022a.977.977 0 000-1.953zm1.966-5.235l-2.843-2.843a.977.977 0 00-1.382 1.381l2.844 2.844a.973.973 0 001.38 0 .977.977 0 000-1.382zM31.236 4.74a.977.977 0 00-1.381 0L27.01 7.583a.977.977 0 001.381 1.381l2.844-2.843a.977.977 0 000-1.381z" fill="#383838"/><path d="M38.001 22.237a3.59 3.59 0 00-1.81.488 3.62 3.62 0 00-3.463-2.585c-1.04 0-1.977.441-2.637 1.146a3.603 3.603 0 00-4.297-.74v-6.752a3.617 3.617 0 00-3.613-3.613 3.617 3.617 0 00-3.613 3.613v5.15a.977.977 0 001.953 0v-5.15c0-.915.744-1.66 1.66-1.66.915 0 1.66.745 1.66 1.66v16.348a.977.977 0 101.953 0v-6.39c0-.915.745-1.66 1.66-1.66.916 0 1.66.745 1.66 1.66v6.39a.977.977 0 101.954 0v-6.389a1.661 1.661 0 013.32 0v6.39a.977.977 0 101.953 0V25.85c0-.915.745-1.66 1.66-1.66.916 0 1.66.745 1.66 1.66v10.212c0 .728-.065 1.456-.194 2.165a.977.977 0 101.921.35c.15-.824.227-1.67.227-2.515V25.85A3.617 3.617 0 0038 22.237z" fill="#383838"/><path d="M37.23 44.875a.977.977 0 00-1.38-.048 11.943 11.943 0 01-8.173 3.22c-4.569 0-8.805-2.658-10.792-6.773l-4.498-9.314a1.798 1.798 0 01.717-2.33 1.802 1.802 0 012.425.619l3.181 5.22a.977.977 0 001.81-.508v-9.57a.977.977 0 00-1.952 0v6.091l-1.371-2.25a3.722 3.722 0 00-5.07-1.293 3.759 3.759 0 00-1.499 4.87l4.498 9.315a13.922 13.922 0 005.142 5.744A13.921 13.921 0 0027.677 50a13.89 13.89 0 009.506-3.744.977.977 0 00.047-1.38zm2.527-3.312a.984.984 0 00-.69-.287.984.984 0 00-.69.286.984.984 0 00-.287.69c0 .259.104.51.286.691a.984.984 0 00.69.287.984.984 0 00.691-.287.982.982 0 00.286-.69.984.984 0 00-.286-.69zM20.235 21.575a.984.984 0 00-.69-.286.984.984 0 00-.691.286.984.984 0 00-.286.69c0 .258.104.51.286.691a.984.984 0 00.69.286.984.984 0 00.69-.286.984.984 0 00.287-.69.984.984 0 00-.286-.69z" fill="#383838"/></svg>